<svg width="15" height="19" viewBox="0 0 15 19" fill="none" xmlns="http://www.w3.org/2000/svg">
<path d="M15 7.5C15 14.642 7.5 18.75 7.5 18.75C7.5 18.75 0 14.642 0 7.5C0 5.51088 0.790176 3.60322 2.1967 2.1967C3.60322 0.790176 5.51088 0 7.5 0C9.48912 0 11.3968 0.790176 12.8033 2.1967C14.2098 3.60322 15 5.51088 15 7.5Z" fill="#090000"/>
<path d="M10.5 7.5C10.5 8.29565 10.1839 9.05871 9.62132 9.62132C9.05871 10.1839 8.29565 10.5 7.5 10.5C6.70435 10.5 5.94129 10.1839 5.37868 9.62132C4.81607 9.05871 4.5 8.29565 4.5 7.5C4.5 6.70435 4.81607 5.94129 5.37868 5.37868C5.94129 4.81607 6.70435 4.5 7.5 4.5C8.29565 4.5 9.05871 4.81607 9.62132 5.37868C10.1839 5.94129 10.5 6.70435 10.5 7.5Z" fill="white"/>
</svg>
