<svg width="14" height="19" viewBox="0 0 14 19" fill="none" xmlns="http://www.w3.org/2000/svg">
    <path
        d="M14 7.5C14 14.642 7 18.75 7 18.75C7 18.75 0 14.642 0 7.5C0 5.51088 0.737498 3.60322 2.05025 2.1967C3.36301 0.790176 5.14348 0 7 0C8.85652 0 10.637 0.790176 11.9497 2.1967C13.2625 3.60322 14 5.51088 14 7.5Z"
        fill="#0050d8" />
    <path
        d="M10 7C10 7.79565 9.68393 8.55871 9.12132 9.12132C8.55871 9.68393 7.79565 10 7 10C6.20435 10 5.44129 9.68393 4.87868 9.12132C4.31607 8.55871 4 7.79565 4 7C4 6.20435 4.31607 5.44129 4.87868 4.87868C5.44129 4.31607 6.20435 4 7 4C7.79565 4 8.55871 4.31607 9.12132 4.87868C9.68393 5.44129 10 6.20435 10 7Z"
        fill="#F2EFEA" />
</svg>