<?xml version="1.0" encoding="UTF-8" standalone="no"?>
<svg width="281px" height="281px" viewBox="0 0 281 281" version="1.1" xmlns="http://www.w3.org/2000/svg" xmlns:xlink="http://www.w3.org/1999/xlink" xmlns:sketch="http://www.bohemiancoding.com/sketch/ns">
    <title>citycampoak-avatar</title>
    <description>Created with Sketch (http://www.bohemiancoding.com/sketch)</description>
    <defs></defs>
    <g id="Page-1" stroke="none" stroke-width="1" fill="none" fill-rule="evenodd" sketch:type="MSPage">
        <path d="M54,128.225455 C54,123.941797 54.6964636,119.902443 56.0894118,116.107273 C57.4823599,112.312102 59.4964574,109.005469 62.1317647,106.187273 C64.767072,103.369077 67.96704,101.133342 71.7317647,99.48 C75.4964894,97.8266584 79.7882112,97 84.6070588,97 C87.7694276,97 90.6682221,97.2818154 93.3035294,97.8454545 C95.9388367,98.4090937 98.4988111,99.2169644 100.983529,100.269091 L97.4823529,113.683636 C95.9011686,113.082421 94.1694212,112.556366 92.2870588,112.105455 C90.4046965,111.654543 88.2964823,111.429091 85.9623529,111.429091 C80.9929163,111.429091 77.2847181,112.969682 74.8376471,116.050909 C72.390576,119.132137 71.1670588,123.190278 71.1670588,128.225455 C71.1670588,133.561239 72.3152826,137.694531 74.6117647,140.625455 C76.9082468,143.556378 80.9176184,145.021818 86.64,145.021818 C88.6729513,145.021818 90.8564589,144.833941 93.1905882,144.458182 C95.5247176,144.082422 97.6705784,143.481216 99.6282353,142.654545 L102,156.407273 C100.042343,157.233944 97.5953088,157.947876 94.6588235,158.549091 C91.7223383,159.150306 88.4847236,159.450909 84.9458824,159.450909 C79.5246788,159.450909 74.8564902,158.643038 70.9411765,157.027273 C67.0258628,155.411507 63.8070714,153.213347 61.2847059,150.432727 C58.7623403,147.652107 56.9176529,144.364261 55.7505882,140.569091 C54.5835236,136.77392 54,132.659416 54,128.225455 L54,128.225455 Z" id="Path" stroke="#000000" fill="#000000" sketch:type="MSShapeGroup"></path>
        <path d="M2,128.225455 C2,123.941797 2.69646362,119.902443 4.08941176,116.107273 C5.48235991,112.312102 7.49645741,109.005469 10.1317647,106.187273 C12.767072,103.369077 15.96704,101.133342 19.7317647,99.48 C23.4964894,97.8266584 27.7882112,97 32.6070588,97 C35.7694276,97 38.6682221,97.2818154 41.3035294,97.8454545 C43.9388367,98.4090937 46.4988111,99.2169644 48.9835294,100.269091 L45.4823529,113.683636 C43.9011686,113.082421 42.1694212,112.556366 40.2870588,112.105455 C38.4046965,111.654543 36.2964823,111.429091 33.9623529,111.429091 C28.9929163,111.429091 25.2847181,112.969682 22.8376471,116.050909 C20.390576,119.132137 19.1670588,123.190278 19.1670588,128.225455 C19.1670588,133.561239 20.3152826,137.694531 22.6117647,140.625455 C24.9082468,143.556378 28.9176184,145.021818 34.64,145.021818 C36.6729513,145.021818 38.8564589,144.833941 41.1905882,144.458182 C43.5247176,144.082422 45.6705784,143.481216 47.6282353,142.654545 L50,156.407273 C48.0423432,157.233944 45.5953088,157.947876 42.6588235,158.549091 C39.7223383,159.150306 36.4847236,159.450909 32.9458824,159.450909 C27.5246788,159.450909 22.8564902,158.643038 18.9411765,157.027273 C15.0258628,155.411507 11.8070714,153.213347 9.28470588,150.432727 C6.76234033,147.652107 4.91765289,144.364261 3.75058824,140.569091 C2.58352358,136.77392 2,132.659416 2,128.225455 L2,128.225455 Z" id="Path" stroke="#669940" fill="#669940" sketch:type="MSShapeGroup"></path>
        <path d="M161.294803,128.864127 C161.294803,133.535473 160.618274,137.811198 159.265197,141.691429 C157.912119,145.57166 155.957703,148.886759 153.40189,151.636825 C150.846076,154.386892 147.782905,156.515336 144.212283,158.022222 C140.641662,159.529108 136.638867,160.28254 132.20378,160.28254 C127.843863,160.28254 123.878653,159.529108 120.308031,158.022222 C116.73741,156.515336 113.674239,154.386892 111.118425,151.636825 C108.562612,148.886759 106.570611,145.57166 105.142362,141.691429 C103.714114,137.811198 103,133.535473 103,128.864127 C103,124.192781 103.732906,119.935892 105.19874,116.093333 C106.664574,112.250774 108.69416,108.973347 111.287559,106.260952 C113.880958,103.548558 116.962922,101.438949 120.533543,99.9320635 C124.104165,98.4251777 127.994205,97.671746 132.20378,97.671746 C136.488525,97.671746 140.41615,98.4251777 143.986772,99.9320635 C147.557393,101.438949 150.620565,103.548558 153.176378,106.260952 C155.732191,108.973347 157.724192,112.250774 159.152441,116.093333 C160.58069,119.935892 161.294803,124.192781 161.294803,128.864127 Z M144.155906,128.864127 C144.155906,123.665371 143.12232,119.578004 141.055118,116.601905 C138.987916,113.625805 136.037499,112.137778 132.20378,112.137778 C128.37006,112.137778 125.40085,113.625805 123.296063,116.601905 C121.191276,119.578004 120.138898,123.665371 120.138898,128.864127 C120.138898,134.062883 121.191276,138.187921 123.296063,141.239365 C125.40085,144.290809 128.37006,145.816508 132.20378,145.816508 C136.037499,145.816508 138.987916,144.290809 141.055118,141.239365 C143.12232,138.187921 144.155906,134.062883 144.155906,128.864127 Z M189.934803,97.671746 C194.896088,97.671746 199.03043,98.2368197 202.337953,99.3669841 C205.645476,100.497149 208.295213,102.117026 210.287244,104.226667 C212.279275,106.336307 213.68871,108.897974 214.515591,111.911746 C215.342471,114.925518 215.755906,118.278288 215.755906,121.970159 L215.755906,157.005079 C213.350434,157.532489 210.005376,158.15407 205.72063,158.869841 C201.435884,159.585612 196.249164,159.943492 190.160315,159.943492 C186.326595,159.943492 182.849989,159.604448 179.730394,158.926349 C176.610798,158.248251 173.923476,157.136939 171.668346,155.592381 C169.413217,154.047823 167.68431,152.032393 166.481575,149.546032 C165.278839,147.05967 164.67748,144.008272 164.67748,140.391746 C164.67748,136.925909 165.372801,133.987525 166.763465,131.576508 C168.154128,129.165491 170.014582,127.24424 172.344882,125.812698 C174.675182,124.381157 177.343712,123.345188 180.350551,122.704762 C183.35739,122.064335 186.476939,121.744127 189.709291,121.744127 C191.88925,121.744127 193.824873,121.838306 195.51622,122.026667 C197.207568,122.215027 198.579417,122.459893 199.631811,122.76127 L199.631811,121.179048 C199.631811,118.315965 198.767358,116.017998 197.038425,114.285079 C195.309493,112.552161 192.302699,111.685714 188.017953,111.685714 C185.161456,111.685714 182.342586,111.892908 179.56126,112.307302 C176.779934,112.721695 174.374498,113.305605 172.344882,114.059048 L170.20252,100.497143 C171.179742,100.195766 172.401253,99.8755573 173.867087,99.5365079 C175.332921,99.1974586 176.93028,98.896086 178.659213,98.632381 C180.388145,98.3686759 182.211014,98.1426464 184.127874,97.9542857 C186.044734,97.765925 187.980358,97.671746 189.934803,97.671746 Z M191.287874,146.946667 C192.941636,146.946667 194.520202,146.908995 196.023622,146.833651 C197.527042,146.758307 198.729759,146.645292 199.631811,146.494603 L199.631811,133.72381 C198.955272,133.573121 197.940479,133.422435 196.587402,133.271746 C195.234324,133.121057 193.994021,133.045714 192.866457,133.045714 C191.287866,133.045714 189.803262,133.139893 188.412598,133.328254 C187.021935,133.516615 185.800425,133.874495 184.748031,134.401905 C183.695638,134.929315 182.868769,135.645075 182.267402,136.549206 C181.666034,137.453338 181.365354,138.583485 181.365354,139.939683 C181.365354,142.576733 182.2486,144.403804 184.015118,145.420952 C185.781636,146.4381 188.205864,146.946667 191.287874,146.946667 Z M242.140787,120.726984 C243.794549,118.918721 245.504663,117.035142 247.271181,115.07619 C249.037699,113.117239 250.747813,111.177152 252.401575,109.255873 C254.055336,107.334594 255.615111,105.507522 257.080945,103.774603 C258.546779,102.041684 259.805874,100.534821 260.858268,99.2539683 L280.816063,99.2539683 C276.832001,103.84997 272.941961,108.238709 269.145827,112.420317 C265.349692,116.601926 261.196558,120.915322 256.686299,125.360635 C258.941429,127.394931 261.271694,129.824748 263.677165,132.650159 C266.082637,135.47557 268.412902,138.395117 270.668031,141.408889 C272.923161,144.422661 274.990332,147.436387 276.869606,150.450159 C278.748881,153.46393 280.327448,156.213956 281.605354,158.700317 L262.324094,158.700317 C261.121359,156.741366 259.749509,154.57525 258.208504,152.201905 C256.667499,149.82856 255.032555,147.45525 253.303622,145.081905 C251.57469,142.70856 249.751821,140.429429 247.834961,138.244444 C245.918101,136.05946 244.020062,134.213553 242.140787,132.706667 L242.140787,158.700317 L225.340157,158.700317 L225.340157,73.712381 L242.140787,71 L242.140787,120.726984 Z" id="oakland" fill="#669940" sketch:type="MSShapeGroup"></path>
    </g>
</svg>