<?xml version="1.0" encoding="UTF-8" standalone="no"?>
<svg width="503px" height="502px" viewBox="0 0 503 502" version="1.1" xmlns="http://www.w3.org/2000/svg" xmlns:xlink="http://www.w3.org/1999/xlink" xmlns:sketch="http://www.bohemiancoding.com/sketch/ns">
    <title>Untitled 5</title>
    <description>Created with Sketch (http://www.bohemiancoding.com/sketch)</description>
    <defs></defs>
    <g id="Page-1" stroke="none" stroke-width="1" fill="none" fill-rule="evenodd" sketch:type="MSPage">
        <rect id="Rectangle-1" fill="#FFFFFF" sketch:type="MSShapeGroup" x="0" y="0" width="502" height="502"></rect>
        <path d="M2,251.1 C2,239.699943 3.8499815,228.950051 7.55,218.85 C11.2500185,208.74995 16.599965,199.950038 23.6,192.45 C30.600035,184.949963 39.09995,179.000022 49.1,174.6 C59.10005,170.199978 70.499936,168 83.3,168 C91.700042,168 99.399965,168.749993 106.4,170.25 C113.400035,171.750007 120.199967,173.899986 126.8,176.7 L117.5,212.4 C113.299979,210.799992 108.700025,209.400006 103.7,208.2 C98.699975,206.999994 93.100031,206.4 86.9,206.4 C73.699934,206.4 63.8500325,210.499959 57.35,218.7 C50.8499675,226.900041 47.6,237.699933 47.6,251.1 C47.6,265.300071 50.6499695,276.299961 56.75,284.1 C62.8500305,291.900039 73.499924,295.8 88.7,295.8 C94.100027,295.8 99.899969,295.300005 106.1,294.3 C112.300031,293.299995 117.999974,291.700011 123.2,289.5 L129.5,326.1 C124.299974,328.300011 117.800039,330.199992 110,331.8 C102.199961,333.400008 93.600047,334.2 84.2,334.2 C69.799928,334.2 57.400052,332.050022 47,327.75 C36.599948,323.449978 28.0500335,317.600037 21.35,310.2 C14.6499665,302.799963 9.7500155,294.05005 6.65,283.95 C3.5499845,273.849949 2,262.900059 2,251.1 L2,251.1 Z" id="c" fill="#E05A09" sketch:type="MSShapeGroup"></path>
        <path d="M126,251.1 C126,239.699943 127.849982,228.950051 131.55,218.85 C135.250019,208.74995 140.599965,199.950038 147.6,192.45 C154.600035,184.949963 163.09995,179.000022 173.1,174.6 C183.10005,170.199978 194.499936,168 207.3,168 C215.700042,168 223.399965,168.749993 230.4,170.25 C237.400035,171.750007 244.199967,173.899986 250.8,176.7 L241.5,212.4 C237.299979,210.799992 232.700025,209.400006 227.7,208.2 C222.699975,206.999994 217.100031,206.4 210.9,206.4 C197.699934,206.4 187.850032,210.499959 181.35,218.7 C174.849967,226.900041 171.6,237.699933 171.6,251.1 C171.6,265.300071 174.649969,276.299961 180.75,284.1 C186.850031,291.900039 197.499924,295.8 212.7,295.8 C218.100027,295.8 223.899969,295.300005 230.1,294.3 C236.300031,293.299995 241.999974,291.700011 247.2,289.5 L253.5,326.1 C248.299974,328.300011 241.800039,330.199992 234,331.8 C226.199961,333.400008 217.600047,334.2 208.2,334.2 C193.799928,334.2 181.400052,332.050022 171,327.75 C160.599948,323.449978 152.050033,317.600037 145.35,310.2 C138.649967,302.799963 133.750015,294.05005 130.65,283.95 C127.549984,273.849949 126,262.900059 126,251.1 L126,251.1 Z" id="Text" fill="#000000" sketch:type="MSShapeGroup"></path>
        <path d="M312.6,297.7 C320.800041,297.7 326.599983,296.900008 330,295.3 C333.400017,293.699992 335.1,290.600023 335.1,286 C335.1,282.399982 332.900022,279.250013 328.5,276.55 C324.099978,273.849986 317.400045,270.800017 308.4,267.4 C301.399965,264.799987 295.050028,262.100014 289.35,259.3 C283.649971,256.499986 278.80002,253.150019 274.8,249.25 C270.79998,245.34998 267.700011,240.700027 265.5,235.3 C263.299989,229.899973 262.2,223.400038 262.2,215.8 C262.2,200.999926 267.699945,189.300043 278.7,180.7 C289.700055,172.099957 304.799904,167.8 324,167.8 C333.600048,167.8 342.799956,168.649991 351.6,170.35 C360.400044,172.050008 367.399974,173.89999 372.6,175.9 L364.8,210.7 C359.599974,208.899991 353.950031,207.300007 347.85,205.9 C341.74997,204.499993 334.900038,203.8 327.3,203.8 C313.29993,203.8 306.3,207.699961 306.3,215.5 C306.3,217.300009 306.599997,218.899993 307.2,220.3 C307.800003,221.700007 308.999991,223.049993 310.8,224.35 C312.600009,225.650006 315.049984,227.049992 318.15,228.55 C321.250016,230.050007 325.199976,231.699991 330,233.5 C339.800049,237.100018 347.899968,240.649982 354.3,244.15 C360.700032,247.650017 365.749981,251.449979 369.45,255.55 C373.150018,259.65002 375.749993,264.199975 377.25,269.2 C378.750007,274.200025 379.5,279.999967 379.5,286.6 C379.5,302.200078 373.650059,313.99996 361.95,322 C350.249942,330.00004 333.700107,334 312.3,334 C298.29993,334 286.650047,332.800012 277.35,330.4 C268.049954,327.999988 261.600018,326.000008 258,324.4 L265.5,288.1 C273.100038,291.100015 280.89996,293.449991 288.9,295.15 C296.90004,296.850008 304.799961,297.7 312.6,297.7 Z M463.2,97 C471.600042,97 479.299965,97.8499915 486.3,99.55 C493.300035,101.250008 498.699981,102.899992 502.5,104.5 L493.8,140.2 C489.79998,138.399991 485.450023,137.050004 480.75,136.15 C476.049977,135.249995 471.70002,134.8 467.7,134.8 C462.299973,134.8 457.750019,135.549992 454.05,137.05 C450.349982,138.550007 447.450011,140.599987 445.35,143.2 C443.24999,145.800013 441.750004,148.899982 440.85,152.5 C439.949995,156.100018 439.5,159.999979 439.5,164.2 L439.5,172 L494.7,172 L494.7,209.2 L439.5,209.2 L439.5,329.8 L394.8,329.8 L394.8,163.6 C394.8,143.199898 400.549942,127.00006 412.05,115 C423.550058,102.99994 440.599887,97 463.2,97 Z" id="sf" fill="#E05A09" sketch:type="MSShapeGroup"></path>
    </g>
</svg>