<?xml version="1.0" encoding="UTF-8" standalone="no"?>
<svg width="300px" height="300px" viewBox="0 0 300 300" version="1.1" xmlns="http://www.w3.org/2000/svg" xmlns:xlink="http://www.w3.org/1999/xlink" xmlns:sketch="http://www.bohemiancoding.com/sketch/ns">
    <title>Untitled 5</title>
    <description>Created with Sketch (http://www.bohemiancoding.com/sketch)</description>
    <defs></defs>
    <g id="Page-1" stroke="none" stroke-width="1" fill="none" fill-rule="evenodd" sketch:type="MSPage">
        <g id="Rectangle-1-+-c-+-c" sketch:type="MSLayerGroup">
            <rect id="Rectangle-1" fill="#FFFFFF" sketch:type="MSShapeGroup" x="0" y="0" width="300" height="300"></rect>
            <g id="c-+-c" transform="translate(40.449438, 80.056180)" sketch:type="MSShapeGroup">
                <path d="M0.421348315,70.0280899 C0.421348315,60.4213003 1.98032149,51.3624021 5.09831461,42.8511236 C8.21630772,34.3398451 12.7246896,26.9241889 18.6235955,20.6039326 C24.5225014,14.2836763 31.6853511,9.26968146 40.1123596,5.56179775 C48.539368,1.85391404 58.1460135,0 68.9325843,0 C76.0112713,0 82.4999705,0.632016152 88.3988764,1.89606742 C94.2977823,3.16011868 100.028062,4.97189831 105.589888,7.33146067 L97.752809,37.4157303 C94.2134654,36.067409 90.3370997,34.8876455 86.1235955,33.8764045 C81.9100913,32.8651635 77.1910374,32.3595506 71.9662921,32.3595506 C60.842641,32.3595506 52.5421622,35.8145722 47.0646067,42.7247191 C41.5870513,49.634866 38.8483146,58.7358986 38.8483146,70.0280899 C38.8483146,81.9944419 41.4185136,91.2640121 46.5589888,97.8370787 C51.6994639,104.410145 60.6740933,107.696629 73.4831461,107.696629 C78.0337306,107.696629 82.9213222,107.275285 88.1460674,106.432584 C93.3708126,105.589883 98.1741354,104.241582 102.55618,102.38764 L107.865169,133.230337 C103.483124,135.084279 98.0056508,136.685387 91.4325843,138.033708 C84.8595177,139.382029 77.6123992,140.05618 69.6910112,140.05618 C57.5561191,140.05618 47.1067854,138.2444 38.3426966,134.620787 C29.5786079,130.997173 22.3736237,126.067447 16.7275281,119.831461 C11.0814324,113.595474 6.95226025,106.221953 4.33988764,97.7106742 C1.72751503,89.1993956 0.421348315,79.9719598 0.421348315,70.0280899 L0.421348315,70.0280899 Z" id="c" fill="#83B845"></path>
                <path d="M104.91573,70.0280899 C104.91573,60.4213003 106.474704,51.3624021 109.592697,42.8511236 C112.71069,34.3398451 117.219072,26.9241889 123.117978,20.6039326 C129.016883,14.2836763 136.179733,9.26968146 144.606742,5.56179775 C153.03375,1.85391404 162.640396,0 173.426966,0 C180.505653,0 186.994353,0.632016152 192.893258,1.89606742 C198.792164,3.16011868 204.522444,4.97189831 210.08427,7.33146067 L202.247191,37.4157303 C198.707847,36.067409 194.831482,34.8876455 190.617978,33.8764045 C186.404473,32.8651635 181.685419,32.3595506 176.460674,32.3595506 C165.337023,32.3595506 157.036544,35.8145722 151.558989,42.7247191 C146.081433,49.634866 143.342697,58.7358986 143.342697,70.0280899 C143.342697,81.9944419 145.912896,91.2640121 151.053371,97.8370787 C156.193846,104.410145 165.168475,107.696629 177.977528,107.696629 C182.528113,107.696629 187.415704,107.275285 192.640449,106.432584 C197.865195,105.589883 202.668517,104.241582 207.050562,102.38764 L212.359551,133.230337 C207.977506,135.084279 202.500033,136.685387 195.926966,138.033708 C189.3539,139.382029 182.106781,140.05618 174.185393,140.05618 C162.050501,140.05618 151.601167,138.2444 142.837079,134.620787 C134.07299,130.997173 126.868006,126.067447 121.22191,119.831461 C115.575814,113.595474 111.446642,106.221953 108.83427,97.7106742 C106.221897,89.1993956 104.91573,79.9719598 104.91573,70.0280899 L104.91573,70.0280899 Z" id="c" fill="#000000"></path>
            </g>
        </g>
    </g>
</svg>