<?xml version="1.0" encoding="UTF-8" standalone="no"?>
<svg width="666px" height="666px" viewBox="0 0 666 666" version="1.1" xmlns="http://www.w3.org/2000/svg" xmlns:xlink="http://www.w3.org/1999/xlink" xmlns:sketch="http://www.bohemiancoding.com/sketch/ns">
    <title>Untitled 5</title>
    <description>Created with Sketch (http://www.bohemiancoding.com/sketch)</description>
    <defs></defs>
    <g id="Page-1" stroke="none" stroke-width="1" fill="none" fill-rule="evenodd" sketch:type="MSPage">
        <rect id="Rectangle-1" fill="#FFFFFF" sketch:type="MSShapeGroup" x="0" y="68" width="502" height="502"></rect>
        <rect id="Rectangle-2" stroke="#979797" fill="#FFFFFF" sketch:type="MSShapeGroup" x="-136" y="-122" width="996" height="996"></rect>
        <path d="M7.05,286.85 C10.7500185,276.74995 16.099965,267.950038 23.1,260.45 C30.100035,252.949963 38.59995,247.000022 48.6,242.6 C58.60005,238.199978 69.999936,236 82.8,236 C91.200042,236 98.899965,236.749993 105.9,238.25 C112.900035,239.750008 119.699967,241.899986 126.3,244.7 L117,280.4 C112.799979,278.799992 108.200025,277.400006 103.2,276.2 C98.199975,274.999994 92.600031,274.4 86.4,274.4 C73.199934,274.4 63.3500325,278.499959 56.85,286.7 C50.3499675,294.900041 47.1,305.699933 47.1,319.1 C47.1,333.300071 50.1499695,344.299961 56.25,352.1 C62.3500305,359.900039 72.999924,363.8 88.2,363.8 C93.600027,363.8 99.399969,363.300005 105.6,362.3 C111.800031,361.299995 117.499974,359.700011 122.7,357.5 L129,394.1 C123.799974,396.300011 117.300039,398.199992 109.5,399.8 C101.699961,401.400008 93.100047,402.2 83.7,402.2 C69.299928,402.2 56.900052,400.050022 46.5,395.75 C36.099948,391.449979 27.5500335,385.600037 20.85,378.2 C14.1499665,370.799963 9.2500155,362.05005 6.15,351.95 C3.0499845,341.84995 1.5,330.900059 1.5,319.1 C1.5,307.699943 3.3499815,296.950051 7.05,286.85 Z" id="c" fill="#0080FF" sketch:type="MSShapeGroup"></path>
        <path d="M125.5,319.1 C125.5,307.699943 127.349982,296.950051 131.05,286.85 C134.750019,276.74995 140.099965,267.950038 147.1,260.45 C154.100035,252.949963 162.59995,247.000022 172.6,242.6 C182.60005,238.199978 193.999936,236 206.8,236 C215.200042,236 222.899965,236.749993 229.9,238.25 C236.900035,239.750008 243.699967,241.899986 250.3,244.7 L241,280.4 C236.799979,278.799992 232.200025,277.400006 227.2,276.2 C222.199975,274.999994 216.600031,274.4 210.4,274.4 C197.199934,274.4 187.350032,278.499959 180.85,286.7 C174.349967,294.900041 171.1,305.699933 171.1,319.1 C171.1,333.300071 174.149969,344.299961 180.25,352.1 C186.350031,359.900039 196.999924,363.8 212.2,363.8 C217.600027,363.8 223.399969,363.300005 229.6,362.3 C235.800031,361.299995 241.499974,359.700011 246.7,357.5 L253,394.1 C247.799974,396.300011 241.300039,398.199992 233.5,399.8 C225.699961,401.400008 217.100047,402.2 207.7,402.2 C193.299928,402.2 180.900052,400.050022 170.5,395.75 C160.099948,391.449979 151.550033,385.600037 144.85,378.2 C138.149967,370.799963 133.250015,362.05005 130.15,351.95 C127.049984,341.84995 125.5,330.900059 125.5,319.1 L125.5,319.1 Z" id="Text" fill="#000000" sketch:type="MSShapeGroup"></path>
        <path d="M317.3,364.9 C325.500041,364.9 331.299983,364.100008 334.7,362.5 C338.100017,360.899992 339.8,357.800023 339.8,353.2 C339.8,349.599982 337.600022,346.450014 333.2,343.75 C328.799978,341.049987 322.100045,338.000017 313.1,334.6 C306.099965,331.999987 299.750028,329.300014 294.05,326.5 C288.349971,323.699986 283.50002,320.35002 279.5,316.45 C275.49998,312.549981 272.400011,307.900027 270.2,302.5 C267.999989,297.099973 266.9,290.600038 266.9,283 C266.9,268.199926 272.399945,256.500043 283.4,247.9 C294.400055,239.299957 309.499904,235 328.7,235 C338.300048,235 347.499956,235.849992 356.3,237.55 C365.100044,239.250009 372.099974,241.09999 377.3,243.1 L369.5,277.9 C364.299974,276.099991 358.650031,274.500007 352.55,273.1 C346.44997,271.699993 339.600038,271 332,271 C317.99993,271 311,274.899961 311,282.7 C311,284.500009 311.299997,286.099993 311.9,287.5 C312.500003,288.900007 313.699991,290.249994 315.5,291.55 C317.300009,292.850007 319.749984,294.249993 322.85,295.75 C325.950016,297.250008 329.899976,298.899991 334.7,300.7 C344.500049,304.300018 352.599968,307.849983 359,311.35 C365.400032,314.850018 370.449981,318.64998 374.15,322.75 C377.850018,326.850021 380.449993,331.399975 381.95,336.4 C383.450007,341.400025 384.2,347.199967 384.2,353.8 C384.2,369.400078 378.350058,381.19996 366.65,389.2 C354.949942,397.20004 338.400107,401.2 317,401.2 C302.99993,401.2 291.350047,400.000012 282.05,397.6 C272.749954,395.199988 266.300018,393.200008 262.7,391.6 L270.2,355.3 C277.800038,358.300015 285.59996,360.649991 293.6,362.35 C301.60004,364.050008 309.499961,364.9 317.3,364.9 Z M456.400001,235 C469.600067,235 480.599957,236.499985 489.400001,239.5 C498.200045,242.500015 505.249975,246.799972 510.550001,252.4 C515.850028,258.000028 519.59999,264.79996 521.800001,272.8 C524.000012,280.80004 525.100001,289.699951 525.100001,299.5 L525.100001,392.5 C518.699969,393.900007 509.800058,395.549991 498.400001,397.45 C486.999944,399.350009 473.200082,400.3 457.000001,400.3 C446.79995,400.3 437.550043,399.400009 429.250001,397.6 C420.949959,395.799991 413.800031,392.850021 407.800001,388.75 C401.799971,384.649979 397.200017,379.300033 394.000001,372.7 C390.799985,366.099967 389.200001,358.000048 389.200001,348.4 C389.200001,339.199954 391.049982,331.400032 394.750001,325 C398.450019,318.599968 403.39997,313.500019 409.600001,309.7 C415.800032,305.899981 422.899961,303.150009 430.900001,301.45 C438.900041,299.749992 447.199958,298.9 455.800001,298.9 C461.60003,298.9 466.749978,299.149998 471.250001,299.65 C475.750023,300.150003 479.399987,300.799996 482.200001,301.6 L482.200001,297.4 C482.200001,289.799962 479.900024,283.700023 475.300001,279.1 C470.699978,274.499977 462.700058,272.2 451.300001,272.2 C443.699963,272.2 436.200038,272.749995 428.800001,273.85 C421.399964,274.950005 415.000028,276.49999 409.600001,278.5 L403.900001,242.5 C406.500014,241.699996 409.749981,240.850005 413.650001,239.95 C417.550021,239.049995 421.799978,238.250003 426.400001,237.55 C431.000024,236.849997 435.849976,236.250002 440.950001,235.75 C446.050027,235.249998 451.199975,235 456.400001,235 Z M460.000001,365.8 C464.400023,365.8 468.599981,365.700001 472.600001,365.5 C476.600021,365.299999 479.799989,365.000002 482.200001,364.6 L482.200001,330.7 C480.399992,330.299998 477.700019,329.900002 474.100001,329.5 C470.499983,329.099998 467.200016,328.9 464.200001,328.9 C459.99998,328.9 456.050019,329.149997 452.350001,329.65 C448.649982,330.150003 445.400015,331.099993 442.600001,332.5 C439.799987,333.900007 437.600009,335.799988 436.000001,338.2 C434.399993,340.600012 433.600001,343.599982 433.600001,347.2 C433.600001,354.200035 435.949977,359.049986 440.650001,361.75 C445.350025,364.450014 451.79996,365.8 460.000001,365.8 Z M540.300002,318.1 C540.300002,306.699943 542.149983,295.95005 545.850002,285.85 C549.550021,275.74995 554.899967,266.950038 561.900002,259.45 C568.900037,251.949963 577.399952,246.000022 587.400002,241.6 C597.400052,237.199978 608.799938,235 621.600002,235 C630.000044,235 637.699967,235.749993 644.700002,237.25 C651.700037,238.750007 658.499969,240.899986 665.100002,243.7 L655.800002,279.4 C651.599981,277.799992 647.000027,276.400006 642.000002,275.2 C636.999977,273.999994 631.400033,273.4 625.200002,273.4 C611.999936,273.4 602.150034,277.499959 595.650002,285.7 C589.149969,293.900041 585.900002,304.699933 585.900002,318.1 C585.900002,332.300071 588.949971,343.299961 595.050002,351.1 C601.150032,358.900039 611.799926,362.8 627.000002,362.8 C632.400029,362.8 638.199971,362.300005 644.400002,361.3 C650.600033,360.299995 656.299976,358.700011 661.500002,356.5 L667.800002,393.1 C662.599976,395.300011 656.100041,397.199992 648.300002,398.8 C640.499963,400.400008 631.900049,401.2 622.500002,401.2 C608.09993,401.2 595.700054,399.050022 585.300002,394.75 C574.89995,390.449978 566.350035,384.600037 559.650002,377.2 C552.949969,369.799963 548.050017,361.05005 544.950002,350.95 C541.849986,340.849949 540.300002,329.900059 540.300002,318.1 Z" id="sac" fill="#0080FF" sketch:type="MSShapeGroup"></path>
    </g>
</svg>