<?xml version="1.0" encoding="UTF-8" standalone="no"?>
<svg width="300px" height="80px" viewBox="0 0 300 80" version="1.1" xmlns="http://www.w3.org/2000/svg" xmlns:xlink="http://www.w3.org/1999/xlink" xmlns:sketch="http://www.bohemiancoding.com/sketch/ns">
    <title>Untitled 5</title>
    <description>Created with Sketch (http://www.bohemiancoding.com/sketch)</description>
    <defs></defs>
    <g id="Page-1" stroke="none" stroke-width="1" fill="none" fill-rule="evenodd" sketch:type="MSPage">
        <g id="logo-govfresh" sketch:type="MSLayerGroup" fill="#0072BC">
            <g id="Page-1" sketch:type="MSShapeGroup">
                <g id="gov-+-fresh">
                    <path d="M40.1060721,59.0659341 C39.2892437,62.6373805 38.2137692,65.7280089 36.8796162,68.3379121 C35.5454632,70.9478152 33.8846038,73.1181234 31.8969881,74.8489014 C29.9093724,76.5796793 27.5269921,77.8708752 24.7497756,78.7225276 C21.9725592,79.57418 18.732522,80 15.0295667,80 C11.5988876,80 8.71280399,79.684069 6.37122938,79.0521979 C4.02965474,78.4203262 1.90593285,77.6373676 0,76.7032966 L4.0841214,66.978022 C5.77223334,67.7472566 7.528388,68.4065907 9.35263797,68.9560439 C11.176888,69.5054972 13.4231323,69.78022 16.0914383,69.78022 C19.5765726,69.78022 22.2039978,68.9972607 23.9737926,67.4313187 C25.7435874,65.8653768 26.9007435,63.8461662 27.4452958,61.3736263 L27.7720255,59.8076923 C26.682921,60.3571456 25.5257649,60.7967017 24.3005223,61.1263737 C23.0752798,61.4560456 21.7819876,61.6208791 20.420607,61.6208791 C17.8612115,61.6208791 15.6558079,61.2225314 13.8043303,60.4258242 C11.9528527,59.6291169 10.4417429,58.5164907 9.27095556,57.0879121 C8.10016825,55.6593335 7.22889772,53.96979 6.65711787,52.0192308 C6.08533802,50.0686716 5.79945238,47.939572 5.79945238,45.6318681 C5.79945238,41.4560231 6.56181409,37.7610051 8.08656034,34.5467033 C9.61130665,31.3324015 11.6397333,28.6538569 14.1719013,26.510989 C16.7040692,24.3681212 19.61738,22.7472583 22.911921,21.6483517 C26.2064621,20.549445 29.6507034,20 33.2447481,20 C35.8585989,20 38.4451833,20.2747226 41.0045788,20.8241758 C43.5639744,21.3736291 46.0688771,22.225269 48.5193622,23.3791209 L40.1060721,59.0659341 L40.1060721,59.0659341 Z M34.8519362,30.6724799 C33.9120195,30.4540439 32.7509634,30.3448276 31.368733,30.3448276 C29.2677428,30.3448276 27.3879376,30.7134327 25.7292611,31.450654 C24.0705846,32.1878752 22.6469086,33.1844743 21.4581905,34.4404809 C20.2694723,35.6964875 19.3572139,37.2118641 18.721388,38.9866561 C18.085562,40.7614481 17.7676538,42.6590818 17.7676538,44.6796142 C17.7676538,45.6625759 17.8505863,46.5772627 18.016454,47.4237019 C18.1823216,48.2701412 18.4864078,49.0073514 18.9287215,49.6353548 C19.3710353,50.2633581 19.9792075,50.7684836 20.7532565,51.1507465 C21.5273056,51.5330094 22.4948523,51.7241379 23.6559259,51.7241379 C24.4299749,51.7241379 25.4666321,51.5876175 26.7659287,51.3145726 C28.0652253,51.0415277 29.2401036,50.4135338 30.2905987,49.4305721 L34.8519362,30.6724799 L34.8519362,30.6724799 Z M64.0741946,65.5172414 C61.1996819,65.5172414 58.7048593,65.0790533 56.5896518,64.202664 C54.4744443,63.3262747 52.7253567,62.0938708 51.3423365,60.5054152 C49.9593162,58.9169596 48.9152872,57.0409669 48.210218,54.8773808 C47.5051489,52.7137948 47.1526196,50.3174537 47.1526196,47.6882858 C47.1526196,44.401826 47.6814135,41.1154154 48.7390173,37.8289556 C49.796621,34.5424957 51.3558851,31.5847262 53.4168565,28.9555583 C55.4778279,26.3263904 57.9997681,24.1765302 60.982753,22.5059131 C63.9657379,20.835296 67.3825602,20 71.2333223,20 C74.0535991,20 76.5348629,20.4381881 78.6771882,21.3145774 C80.8195141,22.1909667 82.5821604,23.4233706 83.9651809,25.0118262 C85.3482007,26.6002818 86.3922301,28.4762745 87.0972991,30.6398606 C87.8023681,32.8034466 88.1548975,35.1997877 88.1548975,37.8289556 C88.1548975,41.1154154 87.6396622,44.401826 86.6091765,47.6882858 C85.5786909,50.9747457 84.0601032,53.9325152 82.0533683,56.561683 C80.0466328,59.190851 77.5382515,61.3407112 74.5281485,63.0113283 C71.5180456,64.6819454 68.033429,65.5172414 64.0741946,65.5172414 L64.0741946,65.5172414 Z M69.7761519,30.3448276 C67.9691516,30.3448276 66.3812054,30.8654892 65.0122656,31.9068281 C63.6433259,32.9481669 62.4934338,34.2635226 61.5625548,35.8529345 C60.6316758,37.4423464 59.933527,39.1824523 59.4680874,41.0733044 C59.0026479,42.9641566 58.7699317,44.7590689 58.7699317,46.4580954 C58.7699317,49.2532681 59.2079858,51.4044227 60.0841072,52.9116237 C60.9602287,54.4188246 62.5481749,55.1724138 64.8479937,55.1724138 C66.6549942,55.1724138 68.2429404,54.6517522 69.6118804,53.6104133 C70.98082,52.5690745 72.1307118,51.2537188 73.0615913,49.6643069 C73.9924702,48.074895 74.6906187,46.3347891 75.1560581,44.443937 C75.6214982,42.5530848 75.8542141,40.7581725 75.8542141,39.0591459 C75.8542141,36.2639732 75.4161601,34.1128187 74.5400385,32.6056177 C73.6639169,31.0984168 72.0759711,30.3448276 69.7761519,30.3448276 L69.7761519,30.3448276 Z M96.3855212,64.8275862 C94.9759244,59.3208063 93.7018845,52.8917373 92.563364,45.5401862 C91.4248428,38.188635 90.6387335,30.1350903 90.2050114,21.3793103 L102.728676,21.3793103 C102.782891,23.5269545 102.864213,25.8810676 102.972643,28.4417202 C103.081074,31.0023728 103.21661,33.5767538 103.379256,36.1649403 C103.541902,38.7531269 103.731652,41.2724409 103.948513,43.7229579 C104.165374,46.173475 104.40934,48.3899206 104.680416,50.3723614 C105.873152,48.7203274 107.214959,46.6828494 108.705879,44.2598663 C110.196799,41.8368831 111.647036,39.3038024 113.056633,36.6605481 C114.46623,34.0172937 115.767377,31.3603123 116.960112,28.6895241 C118.152849,26.0187358 119.074495,23.5820223 119.725078,21.3793103 L132.574032,21.3793103 C131.164435,25.2891241 129.416019,29.309013 127.328731,33.4390979 C125.241443,37.5691828 123.005097,41.5615383 120.619625,45.4162843 C118.234153,49.2710301 115.808056,52.8779168 113.341262,56.2370526 C110.874467,59.5961883 108.583906,62.4596709 106.469511,64.8275862 L96.3855212,64.8275862 L96.3855212,64.8275862 Z" id="gov" opacity="0.454261364"></path>
                    <path d="M158.252451,0 C160.703686,0 162.841676,0.260255869 164.666485,0.780775414 C166.491294,1.30129496 167.866689,1.78071367 168.792711,2.21904592 L164.707339,11.8349116 C163.726844,11.3417878 162.596569,10.9719505 161.31648,10.7253886 C160.036391,10.4788267 158.851645,10.3555476 157.762207,10.3555476 C154.766252,10.3555476 152.546556,11.1226175 151.10305,12.6567804 C149.659545,14.1909433 148.665448,16.1086181 148.120729,18.4098624 L147.630485,20.5467214 L162.010993,20.5467214 L159.55977,30.5735215 L145.260968,30.5735215 L140.276815,51.5311774 C138.424771,59.3663663 136.409341,65.4618328 134.230464,69.8177593 C132.051588,74.1736862 129.654861,77.3378497 127.04021,79.3103448 L116.173121,77.7487938 C117.58939,76.4337972 118.896696,74.817471 120.095077,72.8997676 C121.293459,70.9820641 122.369263,68.9548079 123.322522,66.8179382 C124.27578,64.6810685 125.092846,62.5031378 125.773745,60.2840808 C126.454644,58.0650237 127.012972,55.9966745 127.448747,54.0789709 L135.946321,18.2454886 C137.308118,12.4375863 139.759317,7.94474821 143.29999,4.76683938 C146.840664,1.58893057 151.824767,0 158.252451,0 L158.252451,0 Z M188.454191,30.7352469 C187.371415,30.461267 186.30219,30.2009901 185.246483,29.9544083 C184.190777,29.7078264 182.63431,29.5845373 180.577035,29.5845373 C179.819092,29.5845373 178.979953,29.6530312 178.059593,29.7900212 C177.139233,29.9270111 176.381302,30.0776978 175.785775,30.2420857 L167.908618,63.4482759 L155.808656,63.4482759 L165.553592,22.5158929 C167.881561,21.7487494 170.493719,21.0227137 173.390144,20.3377641 C176.286571,19.6528145 179.548385,19.3103448 183.175685,19.3103448 C184.529155,19.3103448 186.031484,19.4336339 187.682718,19.6802157 C189.333951,19.9267976 190.782142,20.3240624 192.027335,20.8720221 L188.454191,30.7352469 L188.454191,30.7352469 Z M186.560364,46.7521474 C186.560364,43.2465902 187.179664,39.8506326 188.41828,36.5641728 C189.656897,33.277713 191.404696,30.3610236 193.661731,27.8140172 C195.918766,25.2670108 198.657444,23.2130042 201.877847,21.6519358 C205.098251,20.0908673 208.662661,19.3103448 212.571185,19.3103448 C214.497922,19.3103448 216.287008,19.5842123 217.938497,20.1319557 C219.589985,20.679699 221.035017,21.4739149 222.273633,22.5146272 C223.51225,23.5553394 224.475604,24.8288235 225.163724,26.3351177 C225.851845,27.8414117 226.1959,29.5530839 226.1959,31.4701855 C226.1959,34.537548 225.50779,37.1392897 224.131549,39.2754886 C222.755308,41.4116875 220.842362,43.1507464 218.392654,44.4927175 C215.942945,45.8346886 213.039121,46.8069184 209.681093,47.4094361 C206.323066,48.0119537 202.662321,48.313208 198.698747,48.313208 C199.084095,50.6137299 199.923589,52.2432418 201.217255,53.2017926 C202.510922,54.1603434 204.561489,54.6396116 207.369021,54.6396116 C209.130609,54.6396116 210.919695,54.4889845 212.736333,54.1877257 C214.55297,53.8864668 216.259484,53.4345854 217.855922,52.8320677 L218.764237,62.4449148 C217.222847,63.0474323 215.254853,63.5951674 212.860194,64.0881364 C210.465534,64.5811054 207.864479,64.8275862 205.056948,64.8275862 C201.64387,64.8275862 198.767571,64.348318 196.427961,63.3897672 C194.088352,62.4312164 192.189168,61.1303456 190.730353,59.4871157 C189.271538,57.8438857 188.211849,55.9268129 187.551253,53.7358397 C186.890657,51.5448664 186.560364,49.2169923 186.560364,46.7521474 L186.560364,46.7521474 Z M210.203602,28.9655172 C207.448968,28.9655172 205.031948,29.9749272 202.952469,31.9937775 C200.872991,34.0126279 199.509197,36.681342 198.861048,40 C202.209819,39.8893781 204.9104,39.5989999 206.962872,39.1288566 C209.015345,38.6587134 210.608688,38.0917845 211.742949,37.4280529 C212.87721,36.7643213 213.633373,36.0452895 214.01146,35.2709359 C214.389547,34.4965824 214.578588,33.7222405 214.578588,32.947887 C214.578588,30.2929606 213.120274,28.9655172 210.203602,28.9655172 L210.203602,28.9655172 Z M237.08598,54.9682559 C239.876073,54.9682559 241.790814,54.571148 242.830261,53.7769202 C243.869708,52.9826924 244.389422,52.1200097 244.389422,51.188846 C244.389422,50.5863283 244.293685,50.06598 244.102209,49.6277854 C243.910732,49.1895908 243.596167,48.7787894 243.158505,48.3953691 C242.720844,48.0119488 242.119068,47.6148408 241.35316,47.2040334 C240.587252,46.7932259 239.602528,46.3139577 238.398959,45.7662143 C237.031266,45.1636968 235.745654,44.520108 234.542085,43.8354288 C233.338515,43.1507497 232.285408,42.3291471 231.38273,41.3705963 C230.480054,40.4120455 229.768864,39.3165753 229.249141,38.0841529 C228.729418,36.8517304 228.469559,35.386539 228.469559,33.6885348 C228.469559,29.251814 230.09709,25.7463094 233.352198,23.1719159 C236.607307,20.5975223 241.353129,19.3103448 247.589807,19.3103448 C250.544023,19.3103448 253.169954,19.6389859 255.467678,20.2962779 C257.765401,20.9535698 259.625436,21.6656254 261.047836,22.4324661 L256.862717,31.5523466 C255.713856,30.9498289 254.23677,30.3747071 252.431415,29.8269638 C250.626061,29.2792205 248.848087,29.0053529 247.09744,29.0053529 C246.331533,29.0053529 245.579313,29.046433 244.840759,29.1285946 C244.102205,29.2107561 243.418369,29.3887699 242.78923,29.6626416 C242.160092,29.9365132 241.654053,30.3199278 241.271099,30.8128968 C240.888145,31.3058658 240.696671,31.9631479 240.696671,32.7847628 C240.696671,33.8802494 241.120649,34.7018521 241.968618,35.2495954 C242.816588,35.7973388 244.006463,36.4546208 245.538279,37.2214614 C247.671879,38.2621737 249.449853,39.2207101 250.872254,40.0970994 C252.294654,40.9734888 253.429822,41.9046384 254.277791,42.8905763 C255.125761,43.8765143 255.741213,44.9993712 256.124167,46.2591809 C256.507121,47.5189905 256.698595,48.9978752 256.698595,50.6958795 C256.698595,52.4486581 256.329323,54.1740237 255.59077,55.8720279 C254.852215,57.5700321 253.689694,59.0763037 252.103171,60.3908876 C250.516647,61.7054715 248.492492,62.773555 246.030646,63.5951699 C243.568799,64.4167849 240.614627,64.8275862 237.168042,64.8275862 C235.034441,64.8275862 233.106023,64.6906524 231.38273,64.4167808 C229.659437,64.1429091 228.141321,63.8005747 226.828337,63.3897672 C225.515351,62.9789597 224.407537,62.554465 223.50486,62.1162704 C222.602183,61.6780757 221.90467,61.3220479 221.412301,61.0481763 L225.59742,51.6818126 C226.52745,52.2295559 227.977183,52.9142247 229.94666,53.7358397 C231.916138,54.5574546 234.295887,54.9682559 237.08598,54.9682559 L237.08598,54.9682559 Z M286.555984,19.7049413 C288.891724,19.7049413 290.901516,20.0456181 292.585421,20.7269819 C294.269327,21.4083457 295.654454,22.3622406 296.740844,23.5886953 C297.827235,24.8151501 298.642016,26.2732467 299.185211,27.9630288 C299.728406,29.6528109 300,31.4788384 300,33.441166 C300,35.7305482 299.728406,37.992642 299.185211,40.2275151 L293.644647,63.4482759 L281.504293,63.4482759 L286.881899,40.7180946 C287.099177,39.7914399 287.302872,38.8102908 287.492991,37.7746179 C287.683109,36.738945 287.778167,35.7577959 287.778167,34.8311411 C287.778167,33.4139045 287.411516,32.2010952 286.678202,31.1926768 C285.944889,30.1842585 284.546182,29.6800569 282.48204,29.6800569 C281.612927,29.6800569 280.784567,29.7345652 279.996933,29.8435834 C279.2093,29.9526016 278.435259,30.0888723 277.674785,30.2523996 L269.771334,63.4482759 L257.630979,63.4482759 L272.297179,1.96231781 L284.926406,0 L279.956194,20.5225738 C281.042585,20.3045374 282.142539,20.1137583 283.256089,19.9502311 C284.369639,19.7867038 285.469594,19.7049413 286.555984,19.7049413 L286.555984,19.7049413 Z" id="fresh"></path>
                </g>
            </g>
        </g>
    </g>
</svg>