<?xml version="1.0" encoding="UTF-8" standalone="no"?>
<svg width="710px" height="77px" viewBox="0 0 710 77" version="1.1" xmlns="http://www.w3.org/2000/svg" xmlns:xlink="http://www.w3.org/1999/xlink" xmlns:sketch="http://www.bohemiancoding.com/sketch/ns">
    <title>Untitled 5</title>
    <description>Created with Sketch (http://www.bohemiancoding.com/sketch)</description>
    <defs></defs>
    <g id="Page-1" stroke="none" stroke-width="1" fill="none" fill-rule="evenodd" sketch:type="MSPage">
        <path d="M0,40.24 C0,37.1999848 0.4933284,34.3333468 1.48,31.64 C2.4666716,28.9466532 3.893324,26.60001 5.76,24.6 C7.626676,22.59999 9.89332,21.0133392 12.56,19.84 C15.22668,18.6666608 18.2666496,18.08 21.68,18.08 C23.9200112,18.08 25.973324,18.279998 27.84,18.68 C29.706676,19.080002 31.5199912,19.6533296 33.28,20.4 L30.8,29.92 C29.6799944,29.4933312 28.45334,29.1200016 27.12,28.8 C25.78666,28.4799984 24.2933416,28.32 22.64,28.32 C19.1199824,28.32 16.493342,29.4133224 14.76,31.6 C13.026658,33.7866776 12.16,36.6666488 12.16,40.24 C12.16,44.0266856 12.9733252,46.9599896 14.6,49.04 C16.2266748,51.1200104 19.0666464,52.16 23.12,52.16 C24.5600072,52.16 26.1066584,52.026668 27.76,51.76 C29.4133416,51.493332 30.9333264,51.0666696 32.32,50.48 L34,60.24 C32.6133264,60.8266696 30.8800104,61.3333312 28.8,61.76 C26.7199896,62.1866688 24.4266792,62.4 21.92,62.4 C18.0799808,62.4 14.7733472,61.8266724 12,60.68 C9.2266528,59.5333276 6.9466756,57.9733432 5.16,56 C3.3733244,54.0266568 2.0666708,51.6933468 1.24,49 C0.4133292,46.3066532 0,43.3866824 0,40.24 Z M49.92,61.28 L38,61.28 L38,19.2 L49.92,19.2 L49.92,61.28 Z M51.04,7.04 C51.04,9.2266776 50.3333404,10.9466604 48.92,12.2 C47.5066596,13.4533396 45.8400096,14.08 43.92,14.08 C41.9999904,14.08 40.3333404,13.4533396 38.92,12.2 C37.5066596,10.9466604 36.8,9.2266776 36.8,7.04 C36.8,4.8533224 37.5066596,3.1333396 38.92,1.88 C40.3333404,0.6266604 41.9999904,-1.42108547e-14 43.92,-1.42108547e-14 C45.8400096,-1.42108547e-14 47.5066596,0.6266604 48.92,1.88 C50.3333404,3.1333396 51.04,4.8533224 51.04,7.04 Z M56.72,8.72 L68.64,6.8 L68.64,19.2 L82.96,19.2 L82.96,29.12 L68.64,29.12 L68.64,43.92 C68.64,46.4266792 69.0799956,48.4266592 69.96,49.92 C70.8400044,51.4133408 72.61332,52.16 75.28,52.16 C76.5600064,52.16 77.8799932,52.0400012 79.24,51.8 C80.6000068,51.5599988 81.8399944,51.2266688 82.96,50.8 L84.64,60.08 C83.1999928,60.6666696 81.6000088,61.1733312 79.84,61.6 C78.0799912,62.0266688 75.9200128,62.24 73.36,62.24 C70.1066504,62.24 67.413344,61.8000044 65.28,60.92 C63.146656,60.0399956 61.4400064,58.8133412 60.16,57.24 C58.8799936,55.6666588 57.9866692,53.7600112 57.48,51.52 C56.9733308,49.2799888 56.72,46.8000136 56.72,44.08 L56.72,8.72 Z M126.8,19.2 C124.399988,27.3067072 121.893346,34.9066312 119.28,42 C116.666654,49.0933688 113.813349,55.9733 110.72,62.64 C109.599994,65.040012 108.480006,67.0799916 107.36,68.76 C106.239994,70.4400084 105.01334,71.8266612 103.68,72.92 C102.34666,74.0133388 100.840008,74.8133308 99.16,75.32 C97.4799916,75.8266692 95.5200112,76.08 93.28,76.08 C91.413324,76.08 89.6933412,75.9066684 88.12,75.56 C86.5466588,75.2133316 85.2533384,74.8266688 84.24,74.4 L86.32,64.88 C87.5466728,65.3066688 88.6399952,65.5999992 89.6,65.76 C90.5600048,65.9200008 91.573328,66 92.64,66 C94.773344,66 96.4133276,65.4266724 97.56,64.28 C98.7066724,63.1333276 99.679996,61.5466768 100.48,59.52 C97.7599864,54.18664 95.0400136,48.2000332 92.32,41.56 C89.5999864,34.9199668 87.040012,27.466708 84.64,19.2 L97.28,19.2 C97.813336,21.2800104 98.4399964,23.5333212 99.16,25.96 C99.8800036,28.3866788 100.639996,30.8399876 101.44,33.32 C102.240004,35.8000124 103.053329,38.2133216 103.88,40.56 C104.706671,42.9066784 105.49333,45.0399904 106.24,46.96 C106.933337,45.0399904 107.65333,42.9066784 108.4,40.56 C109.14667,38.2133216 109.879996,35.8000124 110.6,33.32 C111.320004,30.8399876 112.01333,28.3866788 112.68,25.96 C113.34667,23.5333212 113.946664,21.2800104 114.48,19.2 L126.8,19.2 Z" id="city" fill="#0080FF" sketch:type="MSShapeGroup"></path>
        <path d="M126,39.16 C126,36.1199848 126.493328,33.2533468 127.48,30.56 C128.466672,27.8666532 129.893324,25.52001 131.76,23.52 C133.626676,21.51999 135.89332,19.9333392 138.56,18.76 C141.22668,17.5866608 144.26665,17 147.68,17 C149.920011,17 151.973324,17.199998 153.84,17.6 C155.706676,18.000002 157.519991,18.5733296 159.28,19.32 L156.8,28.84 C155.679994,28.4133312 154.45334,28.0400016 153.12,27.72 C151.78666,27.3999984 150.293342,27.24 148.64,27.24 C145.119982,27.24 142.493342,28.3333224 140.76,30.52 C139.026658,32.7066776 138.16,35.5866488 138.16,39.16 C138.16,42.9466856 138.973325,45.8799896 140.6,47.96 C142.226675,50.0400104 145.066646,51.08 149.12,51.08 C150.560007,51.08 152.106658,50.946668 153.76,50.68 C155.413342,50.413332 156.933326,49.9866696 158.32,49.4 L160,59.16 C158.613326,59.7466696 156.88001,60.2533312 154.8,60.68 C152.71999,61.1066688 150.426679,61.32 147.92,61.32 C144.079981,61.32 140.773347,60.7466724 138,59.6 C135.226653,58.4533276 132.946676,56.8933432 131.16,54.92 C129.373324,52.9466568 128.066671,50.6133468 127.24,47.92 C126.413329,45.2266532 126,42.3066824 126,39.16 Z M177.12,17 C180.640018,17 183.573322,17.399996 185.92,18.2 C188.266678,19.000004 190.14666,20.1466592 191.56,21.64 C192.97334,23.1333408 193.97333,24.946656 194.56,27.08 C195.14667,29.213344 195.44,31.5866536 195.44,34.2 L195.44,59 C193.733325,59.3733352 191.360015,59.8133308 188.32,60.32 C185.279985,60.8266692 181.600022,61.08 177.28,61.08 C174.559986,61.08 172.093344,60.8400024 169.88,60.36 C167.666656,59.8799976 165.760008,59.0933388 164.16,58 C162.559992,56.9066612 161.333338,55.4800088 160.48,53.72 C159.626662,51.9599912 159.2,49.8000128 159.2,47.24 C159.2,44.7866544 159.693328,42.7066752 160.68,41 C161.666672,39.2933248 162.986658,37.9333384 164.64,36.92 C166.293342,35.9066616 168.186656,35.1733356 170.32,34.72 C172.453344,34.2666644 174.666655,34.04 176.96,34.04 C178.506674,34.04 179.879994,34.106666 181.08,34.24 C182.280006,34.373334 183.25333,34.5466656 184,34.76 L184,33.64 C184,31.6133232 183.386673,29.9866728 182.16,28.76 C180.933327,27.5333272 178.800015,26.92 175.76,26.92 C173.733323,26.92 171.733343,27.0666652 169.76,27.36 C167.786657,27.6533348 166.080007,28.066664 164.64,28.6 L163.12,19 C163.813337,18.7866656 164.679995,18.5600012 165.72,18.32 C166.760005,18.0799988 167.893327,17.8666676 169.12,17.68 C170.346673,17.4933324 171.639993,17.333334 173,17.2 C174.360007,17.066666 175.733326,17 177.12,17 Z M178.08,51.88 C179.253339,51.88 180.373328,51.8533336 181.44,51.8 C182.506672,51.7466664 183.359997,51.6666672 184,51.56 L184,42.52 C183.519998,42.4133328 182.800005,42.3066672 181.84,42.2 C180.879995,42.0933328 180.000004,42.04 179.2,42.04 C178.079994,42.04 177.026672,42.106666 176.04,42.24 C175.053328,42.373334 174.18667,42.6266648 173.44,43 C172.69333,43.3733352 172.106669,43.8799968 171.68,44.52 C171.253331,45.1600032 171.04,45.9599952 171.04,46.92 C171.04,48.786676 171.66666,50.0799964 172.92,50.8 C174.17334,51.5200036 175.893322,51.88 178.08,51.88 Z M225.36,37.88 C225.36,34.0399808 224.866672,31.320008 223.88,29.72 C222.893328,28.119992 221.200012,27.32 218.8,27.32 C218.05333,27.32 217.280004,27.3599996 216.48,27.44 C215.679996,27.5200004 214.90667,27.6133328 214.16,27.72 L214.16,60.2 L202.24,60.2 L202.24,19.56 C203.253338,19.293332 204.439993,19.0133348 205.8,18.72 C207.160007,18.4266652 208.599992,18.1600012 210.12,17.92 C211.640008,17.6799988 213.199992,17.493334 214.8,17.36 C216.400008,17.226666 217.973326,17.16 219.52,17.16 C222.560015,17.16 225.026657,17.5466628 226.92,18.32 C228.813343,19.0933372 230.373327,20.013328 231.6,21.08 C233.306675,19.8533272 235.266656,18.8933368 237.48,18.2 C239.693344,17.5066632 241.733324,17.16 243.6,17.16 C246.960017,17.16 249.719989,17.626662 251.88,18.56 C254.040011,19.493338 255.759994,20.8133248 257.04,22.52 C258.320006,24.2266752 259.199998,26.2533216 259.68,28.6 C260.160002,30.9466784 260.4,33.5599856 260.4,36.44 L260.4,60.2 L248.48,60.2 L248.48,37.88 C248.48,34.0399808 247.986672,31.320008 247,29.72 C246.013328,28.119992 244.320012,27.32 241.92,27.32 C241.279997,27.32 240.386672,27.4799984 239.24,27.8 C238.093328,28.1200016 237.14667,28.5199976 236.4,29 C236.773335,30.2266728 237.013333,31.5199932 237.12,32.88 C237.226667,34.2400068 237.28,35.6933256 237.28,37.24 L237.28,60.2 L225.36,60.2 L225.36,37.88 Z M306.32,39.16 C306.32,42.4133496 305.920004,45.37332 305.12,48.04 C304.319996,50.70668 303.146674,52.9999904 301.6,54.92 C300.053326,56.8400096 298.133345,58.333328 295.84,59.4 C293.546655,60.466672 290.906682,61 287.92,61 C286.266658,61 284.720007,60.8400016 283.28,60.52 C281.839993,60.1999984 280.45334,59.7466696 279.12,59.16 L279.12,75 L267.2,75 L267.2,19.56 C268.266672,19.2399984 269.493326,18.9333348 270.88,18.64 C272.266674,18.3466652 273.719992,18.0933344 275.24,17.88 C276.760008,17.6666656 278.306659,17.493334 279.88,17.36 C281.453341,17.226666 282.959993,17.16 284.4,17.16 C287.866684,17.16 290.959986,17.6799948 293.68,18.72 C296.400014,19.7600052 298.693324,21.2266572 300.56,23.12 C302.426676,25.0133428 303.853328,27.3199864 304.84,30.04 C305.826672,32.7600136 306.32,35.7999832 306.32,39.16 Z M294.16,39.48 C294.16,35.7999816 293.333342,32.8533444 291.68,30.64 C290.026658,28.4266556 287.57335,27.32 284.32,27.32 C283.253328,27.32 282.266671,27.3599996 281.36,27.44 C280.453329,27.5200004 279.70667,27.6133328 279.12,27.72 L279.12,49.24 C279.86667,49.7200024 280.839994,50.1199984 282.04,50.44 C283.240006,50.7600016 284.453327,50.92 285.68,50.92 C291.333362,50.92 294.16,47.1067048 294.16,39.48 Z" id="camp" fill="#000000" sketch:type="MSShapeGroup"></path>
        <path d="M321.56,49.92 C323.746678,49.92 325.293329,49.7066688 326.2,49.28 C327.106671,48.8533312 327.56,48.0266728 327.56,46.8 C327.56,45.8399952 326.973339,45.0000036 325.8,44.28 C324.626661,43.5599964 322.840012,42.7466712 320.44,41.84 C318.573324,41.1466632 316.880008,40.4266704 315.36,39.68 C313.839992,38.9333296 312.546672,38.0400052 311.48,37 C310.413328,35.9599948 309.58667,34.7200072 309,33.28 C308.41333,31.8399928 308.12,30.1066768 308.12,28.08 C308.12,24.1333136 309.586652,21.0133448 312.52,18.72 C315.453348,16.4266552 319.479974,15.28 324.6,15.28 C327.160013,15.28 329.613322,15.5066644 331.96,15.96 C334.306678,16.4133356 336.173326,16.906664 337.56,17.44 L335.48,26.72 C334.093326,26.2399976 332.586675,25.8133352 330.96,25.44 C329.333325,25.0666648 327.506677,24.88 325.48,24.88 C321.746648,24.88 319.88,25.9199896 319.88,28 C319.88,28.4800024 319.959999,28.9066648 320.12,29.28 C320.280001,29.6533352 320.599998,30.0133316 321.08,30.36 C321.560002,30.7066684 322.213329,31.079998 323.04,31.48 C323.866671,31.880002 324.919994,32.3199976 326.2,32.8 C328.813346,33.7600048 330.973325,34.706662 332.68,35.64 C334.386675,36.573338 335.733328,37.5866612 336.72,38.68 C337.706672,39.7733388 338.399998,40.98666 338.8,42.32 C339.200002,43.65334 339.4,45.1999912 339.4,46.96 C339.4,51.1200208 337.840016,54.266656 334.72,56.4 C331.599984,58.533344 327.186695,59.6 321.48,59.6 C317.746648,59.6 314.640012,59.2800032 312.16,58.64 C309.679988,57.9999968 307.960005,57.4666688 307,57.04 L309,47.36 C311.026677,48.160004 313.106656,48.7866644 315.24,49.24 C317.373344,49.6933356 319.47999,49.92 321.56,49.92 Z M359.4,15.28 C362.920018,15.28 365.853322,15.679996 368.2,16.48 C370.546678,17.280004 372.42666,18.4266592 373.84,19.92 C375.25334,21.4133408 376.25333,23.226656 376.84,25.36 C377.42667,27.493344 377.72,29.8666536 377.72,32.48 L377.72,57.28 C376.013325,57.6533352 373.640015,58.0933308 370.6,58.6 C367.559985,59.1066692 363.880022,59.36 359.56,59.36 C356.839986,59.36 354.373344,59.1200024 352.16,58.64 C349.946656,58.1599976 348.040008,57.3733388 346.44,56.28 C344.839992,55.1866612 343.613338,53.7600088 342.76,52 C341.906662,50.2399912 341.48,48.0800128 341.48,45.52 C341.48,43.0666544 341.973328,40.9866752 342.96,39.28 C343.946672,37.5733248 345.266658,36.2133384 346.92,35.2 C348.573342,34.1866616 350.466656,33.4533356 352.6,33 C354.733344,32.5466644 356.946655,32.32 359.24,32.32 C360.786674,32.32 362.159994,32.386666 363.36,32.52 C364.560006,32.653334 365.53333,32.8266656 366.28,33.04 L366.28,31.92 C366.28,29.8933232 365.666673,28.2666728 364.44,27.04 C363.213327,25.8133272 361.080015,25.2 358.04,25.2 C356.013323,25.2 354.013343,25.3466652 352.04,25.64 C350.066657,25.9333348 348.360007,26.346664 346.92,26.88 L345.4,17.28 C346.093337,17.0666656 346.959995,16.8400012 348,16.6 C349.040005,16.3599988 350.173327,16.1466676 351.4,15.96 C352.626673,15.7733324 353.919993,15.613334 355.28,15.48 C356.640007,15.346666 358.013326,15.28 359.4,15.28 Z M360.36,50.16 C361.533339,50.16 362.653328,50.1333336 363.72,50.08 C364.786672,50.0266664 365.639997,49.9466672 366.28,49.84 L366.28,40.8 C365.799998,40.6933328 365.080005,40.5866672 364.12,40.48 C363.159995,40.3733328 362.280004,40.32 361.48,40.32 C360.359994,40.32 359.306672,40.386666 358.32,40.52 C357.333328,40.653334 356.46667,40.9066648 355.72,41.28 C354.97333,41.6533352 354.386669,42.1599968 353.96,42.8 C353.533331,43.4400032 353.32,44.2399952 353.32,45.2 C353.32,47.066676 353.94666,48.3599964 355.2,49.08 C356.45334,49.8000036 358.173322,50.16 360.36,50.16 Z M382.52,37.44 C382.52,34.3999848 383.013328,31.5333468 384,28.84 C384.986672,26.1466532 386.413324,23.80001 388.28,21.8 C390.146676,19.79999 392.41332,18.2133392 395.08,17.04 C397.74668,15.8666608 400.78665,15.28 404.2,15.28 C406.440011,15.28 408.493324,15.479998 410.36,15.88 C412.226676,16.280002 414.039991,16.8533296 415.8,17.6 L413.32,27.12 C412.199994,26.6933312 410.97334,26.3200016 409.64,26 C408.30666,25.6799984 406.813342,25.52 405.16,25.52 C401.639982,25.52 399.013342,26.6133224 397.28,28.8 C395.546658,30.9866776 394.68,33.8666488 394.68,37.44 C394.68,41.2266856 395.493325,44.1599896 397.12,46.24 C398.746675,48.3200104 401.586646,49.36 405.64,49.36 C407.080007,49.36 408.626658,49.226668 410.28,48.96 C411.933342,48.693332 413.453326,48.2666696 414.84,47.68 L416.52,57.44 C415.133326,58.0266696 413.40001,58.5333312 411.32,58.96 C409.23999,59.3866688 406.946679,59.6 404.44,59.6 C400.599981,59.6 397.293347,59.0266724 394.52,57.88 C391.746653,56.7333276 389.466676,55.1733432 387.68,53.2 C385.893324,51.2266568 384.586671,48.8933468 383.76,46.2 C382.933329,43.5066532 382.52,40.5866824 382.52,37.44 Z M445.88,26.96 C444.813328,26.693332 443.560007,26.4133348 442.12,26.12 C440.679993,25.8266652 439.133342,25.68 437.48,25.68 C436.73333,25.68 435.840005,25.746666 434.8,25.88 C433.759995,26.013334 432.973336,26.1599992 432.44,26.32 L432.44,58.48 L420.52,58.48 L420.52,18.64 C422.653344,17.8933296 425.173319,17.18667 428.08,16.52 C430.986681,15.85333 434.226649,15.52 437.8,15.52 C438.440003,15.52 439.213329,15.5599996 440.12,15.64 C441.026671,15.7200004 441.933329,15.826666 442.84,15.96 C443.746671,16.093334 444.653329,16.2533324 445.56,16.44 C446.466671,16.6266676 447.239997,16.853332 447.88,17.12 L445.88,26.96 Z M464.6,15.28 C468.120018,15.28 471.053322,15.679996 473.4,16.48 C475.746678,17.280004 477.62666,18.4266592 479.04,19.92 C480.45334,21.4133408 481.45333,23.226656 482.04,25.36 C482.62667,27.493344 482.92,29.8666536 482.92,32.48 L482.92,57.28 C481.213325,57.6533352 478.840015,58.0933308 475.8,58.6 C472.759985,59.1066692 469.080022,59.36 464.76,59.36 C462.039986,59.36 459.573344,59.1200024 457.36,58.64 C455.146656,58.1599976 453.240008,57.3733388 451.64,56.28 C450.039992,55.1866612 448.813338,53.7600088 447.96,52 C447.106662,50.2399912 446.68,48.0800128 446.68,45.52 C446.68,43.0666544 447.173328,40.9866752 448.16,39.28 C449.146672,37.5733248 450.466658,36.2133384 452.12,35.2 C453.773342,34.1866616 455.666656,33.4533356 457.8,33 C459.933344,32.5466644 462.146655,32.32 464.44,32.32 C465.986674,32.32 467.359994,32.386666 468.56,32.52 C469.760006,32.653334 470.73333,32.8266656 471.48,33.04 L471.48,31.92 C471.48,29.8933232 470.866673,28.2666728 469.64,27.04 C468.413327,25.8133272 466.280015,25.2 463.24,25.2 C461.213323,25.2 459.213343,25.3466652 457.24,25.64 C455.266657,25.9333348 453.560007,26.346664 452.12,26.88 L450.6,17.28 C451.293337,17.0666656 452.159995,16.8400012 453.2,16.6 C454.240005,16.3599988 455.373327,16.1466676 456.6,15.96 C457.826673,15.7733324 459.119993,15.613334 460.48,15.48 C461.840007,15.346666 463.213326,15.28 464.6,15.28 Z M465.56,50.16 C466.733339,50.16 467.853328,50.1333336 468.92,50.08 C469.986672,50.0266664 470.839997,49.9466672 471.48,49.84 L471.48,40.8 C470.999998,40.6933328 470.280005,40.5866672 469.32,40.48 C468.359995,40.3733328 467.480004,40.32 466.68,40.32 C465.559994,40.32 464.506672,40.386666 463.52,40.52 C462.533328,40.653334 461.66667,40.9066648 460.92,41.28 C460.17333,41.6533352 459.586669,42.1599968 459.16,42.8 C458.733331,43.4400032 458.52,44.2399952 458.52,45.2 C458.52,47.066676 459.14666,48.3599964 460.4,49.08 C461.65334,49.8000036 463.373322,50.16 465.56,50.16 Z M512.84,36.16 C512.84,32.3199808 512.346672,29.600008 511.36,28 C510.373328,26.399992 508.680012,25.6 506.28,25.6 C505.53333,25.6 504.760004,25.6399996 503.96,25.72 C503.159996,25.8000004 502.38667,25.8933328 501.64,26 L501.64,58.48 L489.72,58.48 L489.72,17.84 C490.733338,17.573332 491.919993,17.2933348 493.28,17 C494.640007,16.7066652 496.079992,16.4400012 497.6,16.2 C499.120008,15.9599988 500.679992,15.773334 502.28,15.64 C503.880008,15.506666 505.453326,15.44 507,15.44 C510.040015,15.44 512.506657,15.8266628 514.4,16.6 C516.293343,17.3733372 517.853327,18.293328 519.08,19.36 C520.786675,18.1333272 522.746656,17.1733368 524.96,16.48 C527.173344,15.7866632 529.213324,15.44 531.08,15.44 C534.440017,15.44 537.199989,15.906662 539.36,16.84 C541.520011,17.773338 543.239994,19.0933248 544.52,20.8 C545.800006,22.5066752 546.679998,24.5333216 547.16,26.88 C547.640002,29.2266784 547.88,31.8399856 547.88,34.72 L547.88,58.48 L535.96,58.48 L535.96,36.16 C535.96,32.3199808 535.466672,29.600008 534.48,28 C533.493328,26.399992 531.800012,25.6 529.4,25.6 C528.759997,25.6 527.866672,25.7599984 526.72,26.08 C525.573328,26.4000016 524.62667,26.7999976 523.88,27.28 C524.253335,28.5066728 524.493333,29.7999932 524.6,31.16 C524.706667,32.5200068 524.76,33.9733256 524.76,35.52 L524.76,58.48 L512.84,58.48 L512.84,36.16 Z M552.68,37.76 C552.68,34.026648 553.253328,30.760014 554.4,27.96 C555.546672,25.159986 557.053324,22.826676 558.92,20.96 C560.786676,19.093324 562.933321,17.6800048 565.36,16.72 C567.786679,15.7599952 570.279987,15.28 572.84,15.28 C578.813363,15.28 583.533316,17.1066484 587,20.76 C590.466684,24.4133516 592.2,29.7866312 592.2,36.88 C592.2,37.5733368 592.173334,38.3333292 592.12,39.16 C592.066666,39.9866708 592.013334,40.7199968 591.96,41.36 L564.92,41.36 C565.186668,43.8133456 566.333323,45.7599928 568.36,47.2 C570.386677,48.6400072 573.10665,49.36 576.52,49.36 C578.706678,49.36 580.853323,49.160002 582.96,48.76 C585.066677,48.359998 586.78666,47.8666696 588.12,47.28 L589.72,56.96 C589.079997,57.2800016 588.226672,57.5999984 587.16,57.92 C586.093328,58.2400016 584.906673,58.5199988 583.6,58.76 C582.293327,59.0000012 580.893341,59.1999992 579.4,59.36 C577.906659,59.5200008 576.413341,59.6 574.92,59.6 C571.133314,59.6 567.840014,59.0400056 565.04,57.92 C562.239986,56.7999944 559.920009,55.2666764 558.08,53.32 C556.239991,51.3733236 554.880004,49.06668 554,46.4 C553.119996,43.73332 552.68,40.8533488 552.68,37.76 Z M580.68,33.2 C580.626666,32.1866616 580.453335,31.2000048 580.16,30.24 C579.866665,29.2799952 579.413336,28.4266704 578.8,27.68 C578.186664,26.9333296 577.413338,26.3200024 576.48,25.84 C575.546662,25.3599976 574.386674,25.12 573,25.12 C571.66666,25.12 570.520005,25.3466644 569.56,25.8 C568.599995,26.2533356 567.800003,26.8533296 567.16,27.6 C566.519997,28.3466704 566.026668,29.2133284 565.68,30.2 C565.333332,31.1866716 565.080001,32.1866616 564.92,33.2 L580.68,33.2 Z M597.4,17.84 C599.426677,17.2533304 602.039984,16.7066692 605.24,16.2 C608.440016,15.6933308 611.799982,15.44 615.32,15.44 C618.893351,15.44 621.866655,15.906662 624.24,16.84 C626.613345,17.773338 628.493326,19.0933248 629.88,20.8 C631.266674,22.5066752 632.25333,24.5333216 632.84,26.88 C633.42667,29.2266784 633.72,31.8399856 633.72,34.72 L633.72,58.48 L621.8,58.48 L621.8,36.16 C621.8,32.3199808 621.293338,29.600008 620.28,28 C619.266662,26.399992 617.373347,25.6 614.6,25.6 C613.746662,25.6 612.840005,25.6399996 611.88,25.72 C610.919995,25.8000004 610.06667,25.8933328 609.32,26 L609.32,58.48 L597.4,58.48 L597.4,17.84 Z M640.12,5.92 L652.04,4 L652.04,16.4 L666.36,16.4 L666.36,26.32 L652.04,26.32 L652.04,41.12 C652.04,43.6266792 652.479996,45.6266592 653.36,47.12 C654.240004,48.6133408 656.01332,49.36 658.68,49.36 C659.960006,49.36 661.279993,49.2400012 662.64,49 C664.000007,48.7599988 665.239994,48.4266688 666.36,48 L668.04,57.28 C666.599993,57.8666696 665.000009,58.3733312 663.24,58.8 C661.479991,59.2266688 659.320013,59.44 656.76,59.44 C653.50665,59.44 650.813344,59.0000044 648.68,58.12 C646.546656,57.2399956 644.840006,56.0133412 643.56,54.44 C642.279994,52.8666588 641.386669,50.9600112 640.88,48.72 C640.373331,46.4799888 640.12,44.0000136 640.12,41.28 L640.12,5.92 Z M709.8,37.36 C709.8,40.6666832 709.320005,43.6933196 708.36,46.44 C707.399995,49.1866804 706.013342,51.5333236 704.2,53.48 C702.386658,55.4266764 700.213346,56.933328 697.68,58 C695.146654,59.066672 692.306682,59.6 689.16,59.6 C686.066651,59.6 683.253346,59.066672 680.72,58 C678.186654,56.933328 676.013342,55.4266764 674.2,53.48 C672.386658,51.5333236 670.973338,49.1866804 669.96,46.44 C668.946662,43.6933196 668.44,40.6666832 668.44,37.36 C668.44,34.0533168 668.959995,31.0400136 670,28.32 C671.040005,25.5999864 672.479991,23.2800096 674.32,21.36 C676.160009,19.4399904 678.346654,17.946672 680.88,16.88 C683.413346,15.813328 686.173318,15.28 689.16,15.28 C692.200015,15.28 694.986654,15.813328 697.52,16.88 C700.053346,17.946672 702.226658,19.4399904 704.04,21.36 C705.853342,23.2800096 707.266662,25.5999864 708.28,28.32 C709.293338,31.0400136 709.8,34.0533168 709.8,37.36 Z M697.64,37.36 C697.64,33.6799816 696.906674,30.7866772 695.44,28.68 C693.973326,26.5733228 691.880014,25.52 689.16,25.52 C686.439986,25.52 684.333341,26.5733228 682.84,28.68 C681.346659,30.7866772 680.6,33.6799816 680.6,37.36 C680.6,41.0400184 681.346659,43.9599892 682.84,46.12 C684.333341,48.2800108 686.439986,49.36 689.16,49.36 C691.880014,49.36 693.973326,48.2800108 695.44,46.12 C696.906674,43.9599892 697.64,41.0400184 697.64,37.36 Z" id="sacramento" fill="#0080FF" sketch:type="MSShapeGroup"></path>
    </g>
</svg>