<?xml version="1.0" encoding="UTF-8" standalone="no"?>
<svg width="373px" height="80px" viewBox="0 0 373 80" version="1.1" xmlns="http://www.w3.org/2000/svg" xmlns:xlink="http://www.w3.org/1999/xlink" xmlns:sketch="http://www.bohemiancoding.com/sketch/ns">
    <title>Untitled 5</title>
    <description>Created with Sketch (http://www.bohemiancoding.com/sketch)</description>
    <defs></defs>
    <g id="Page-1" stroke="none" stroke-width="1" fill="none" fill-rule="evenodd" sketch:type="MSPage">
        <path d="M0,43.24 C-4.4408921e-16,40.1999848 0.4933284,37.3333468 1.48,34.64 C2.4666716,31.9466532 3.893324,29.60001 5.76,27.6 C7.626676,25.59999 9.89332,24.0133392 12.56,22.84 C15.22668,21.6666608 18.2666496,21.08 21.68,21.08 C23.9200112,21.08 25.973324,21.279998 27.84,21.68 C29.706676,22.080002 31.5199912,22.6533296 33.28,23.4 L30.8,32.92 C29.6799944,32.4933312 28.45334,32.1200016 27.12,31.8 C25.78666,31.4799984 24.2933416,31.32 22.64,31.32 C19.1199824,31.32 16.493342,32.4133224 14.76,34.6 C13.026658,36.7866776 12.16,39.6666488 12.16,43.24 C12.16,47.0266856 12.9733252,49.9599896 14.6,52.04 C16.2266748,54.1200104 19.0666464,55.16 23.12,55.16 C24.5600072,55.16 26.1066584,55.026668 27.76,54.76 C29.4133416,54.493332 30.9333264,54.0666696 32.32,53.48 L34,63.24 C32.6133264,63.8266696 30.8800104,64.3333312 28.8,64.76 C26.7199896,65.1866688 24.4266792,65.4 21.92,65.4 C18.0799808,65.4 14.7733472,64.8266724 12,63.68 C9.2266528,62.5333276 6.9466756,60.9733432 5.16,59 C3.3733244,57.0266568 2.0666708,54.6933468 1.24,52 C0.4133292,49.3066532 -4.4408921e-16,46.3866824 0,43.24 Z M49.92,64.28 L38,64.28 L38,22.2 L49.92,22.2 L49.92,64.28 Z M51.04,10.04 C51.04,12.2266776 50.3333404,13.9466604 48.92,15.2 C47.5066596,16.4533396 45.8400096,17.08 43.92,17.08 C41.9999904,17.08 40.3333404,16.4533396 38.92,15.2 C37.5066596,13.9466604 36.8,12.2266776 36.8,10.04 C36.8,7.8533224 37.5066596,6.1333396 38.92,4.88 C40.3333404,3.6266604 41.9999904,3 43.92,3 C45.8400096,3 47.5066596,3.6266604 48.92,4.88 C50.3333404,6.1333396 51.04,7.8533224 51.04,10.04 Z M56.72,11.72 L68.64,9.8 L68.64,22.2 L82.96,22.2 L82.96,32.12 L68.64,32.12 L68.64,46.92 C68.64,49.4266792 69.0799956,51.4266592 69.96,52.92 C70.8400044,54.4133408 72.61332,55.16 75.28,55.16 C76.5600064,55.16 77.8799932,55.0400012 79.24,54.8 C80.6000068,54.5599988 81.8399944,54.2266688 82.96,53.8 L84.64,63.08 C83.1999928,63.6666696 81.6000088,64.1733312 79.84,64.6 C78.0799912,65.0266688 75.9200128,65.24 73.36,65.24 C70.1066504,65.24 67.413344,64.8000044 65.28,63.92 C63.146656,63.0399956 61.4400064,61.8133412 60.16,60.24 C58.8799936,58.6666588 57.9866692,56.7600112 57.48,54.52 C56.9733308,52.2799888 56.72,49.8000136 56.72,47.08 L56.72,11.72 Z M126.8,22.2 C124.399988,30.3067072 121.893346,37.9066312 119.28,45 C116.666654,52.0933688 113.813349,58.9733 110.72,65.64 C109.599994,68.040012 108.480006,70.0799916 107.36,71.76 C106.239994,73.4400084 105.01334,74.8266612 103.68,75.92 C102.34666,77.0133388 100.840008,77.8133308 99.16,78.32 C97.4799916,78.8266692 95.5200112,79.08 93.28,79.08 C91.413324,79.08 89.6933412,78.9066684 88.12,78.56 C86.5466588,78.2133316 85.2533384,77.8266688 84.24,77.4 L86.32,67.88 C87.5466728,68.3066688 88.6399952,68.5999992 89.6,68.76 C90.5600048,68.9200008 91.573328,69 92.64,69 C94.773344,69 96.4133276,68.4266724 97.56,67.28 C98.7066724,66.1333276 99.679996,64.5466768 100.48,62.52 C97.7599864,57.18664 95.0400136,51.2000332 92.32,44.56 C89.5999864,37.9199668 87.040012,30.466708 84.64,22.2 L97.28,22.2 C97.813336,24.2800104 98.4399964,26.5333212 99.16,28.96 C99.8800036,31.3866788 100.639996,33.8399876 101.44,36.32 C102.240004,38.8000124 103.053329,41.2133216 103.88,43.56 C104.706671,45.9066784 105.49333,48.0399904 106.24,49.96 C106.933337,48.0399904 107.65333,45.9066784 108.4,43.56 C109.14667,41.2133216 109.879996,38.8000124 110.6,36.32 C111.320004,33.8399876 112.01333,31.3866788 112.68,28.96 C113.34667,26.5333212 113.946664,24.2800104 114.48,22.2 L126.8,22.2 Z" id="city" fill="#E05A09" sketch:type="MSShapeGroup"></path>
        <path d="M126,43.16 C126,40.1199848 126.493328,37.2533468 127.48,34.56 C128.466672,31.8666532 129.893324,29.52001 131.76,27.52 C133.626676,25.51999 135.89332,23.9333392 138.56,22.76 C141.22668,21.5866608 144.26665,21 147.68,21 C149.920011,21 151.973324,21.199998 153.84,21.6 C155.706676,22.000002 157.519991,22.5733296 159.28,23.32 L156.8,32.84 C155.679994,32.4133312 154.45334,32.0400016 153.12,31.72 C151.78666,31.3999984 150.293342,31.24 148.64,31.24 C145.119982,31.24 142.493342,32.3333224 140.76,34.52 C139.026658,36.7066776 138.16,39.5866488 138.16,43.16 C138.16,46.9466856 138.973325,49.8799896 140.6,51.96 C142.226675,54.0400104 145.066646,55.08 149.12,55.08 C150.560007,55.08 152.106658,54.946668 153.76,54.68 C155.413342,54.413332 156.933326,53.9866696 158.32,53.4 L160,63.16 C158.613326,63.7466696 156.88001,64.2533312 154.8,64.68 C152.71999,65.1066688 150.426679,65.32 147.92,65.32 C144.079981,65.32 140.773347,64.7466724 138,63.6 C135.226653,62.4533276 132.946676,60.8933432 131.16,58.92 C129.373324,56.9466568 128.066671,54.6133468 127.24,51.92 C126.413329,49.2266532 126,46.3066824 126,43.16 Z M177.12,21 C180.640018,21 183.573322,21.399996 185.92,22.2 C188.266678,23.000004 190.14666,24.1466592 191.56,25.64 C192.97334,27.1333408 193.97333,28.946656 194.56,31.08 C195.14667,33.213344 195.44,35.5866536 195.44,38.2 L195.44,63 C193.733325,63.3733352 191.360015,63.8133308 188.32,64.32 C185.279985,64.8266692 181.600022,65.08 177.28,65.08 C174.559986,65.08 172.093344,64.8400024 169.88,64.36 C167.666656,63.8799976 165.760008,63.0933388 164.16,62 C162.559992,60.9066612 161.333338,59.4800088 160.48,57.72 C159.626662,55.9599912 159.2,53.8000128 159.2,51.24 C159.2,48.7866544 159.693328,46.7066752 160.68,45 C161.666672,43.2933248 162.986658,41.9333384 164.64,40.92 C166.293342,39.9066616 168.186656,39.1733356 170.32,38.72 C172.453344,38.2666644 174.666655,38.04 176.96,38.04 C178.506674,38.04 179.879994,38.106666 181.08,38.24 C182.280006,38.373334 183.25333,38.5466656 184,38.76 L184,37.64 C184,35.6133232 183.386673,33.9866728 182.16,32.76 C180.933327,31.5333272 178.800015,30.92 175.76,30.92 C173.733323,30.92 171.733343,31.0666652 169.76,31.36 C167.786657,31.6533348 166.080007,32.066664 164.64,32.6 L163.12,23 C163.813337,22.7866656 164.679995,22.5600012 165.72,22.32 C166.760005,22.0799988 167.893327,21.8666676 169.12,21.68 C170.346673,21.4933324 171.639993,21.333334 173,21.2 C174.360007,21.066666 175.733326,21 177.12,21 Z M178.08,55.88 C179.253339,55.88 180.373328,55.8533336 181.44,55.8 C182.506672,55.7466664 183.359997,55.6666672 184,55.56 L184,46.52 C183.519998,46.4133328 182.800005,46.3066672 181.84,46.2 C180.879995,46.0933328 180.000004,46.04 179.2,46.04 C178.079994,46.04 177.026672,46.106666 176.04,46.24 C175.053328,46.373334 174.18667,46.6266648 173.44,47 C172.69333,47.3733352 172.106669,47.8799968 171.68,48.52 C171.253331,49.1600032 171.04,49.9599952 171.04,50.92 C171.04,52.786676 171.66666,54.0799964 172.92,54.8 C174.17334,55.5200036 175.893322,55.88 178.08,55.88 Z M225.36,41.88 C225.36,38.0399808 224.866672,35.320008 223.88,33.72 C222.893328,32.119992 221.200012,31.32 218.8,31.32 C218.05333,31.32 217.280004,31.3599996 216.48,31.44 C215.679996,31.5200004 214.90667,31.6133328 214.16,31.72 L214.16,64.2 L202.24,64.2 L202.24,23.56 C203.253338,23.293332 204.439993,23.0133348 205.8,22.72 C207.160007,22.4266652 208.599992,22.1600012 210.12,21.92 C211.640008,21.6799988 213.199992,21.493334 214.8,21.36 C216.400008,21.226666 217.973326,21.16 219.52,21.16 C222.560015,21.16 225.026657,21.5466628 226.92,22.32 C228.813343,23.0933372 230.373327,24.013328 231.6,25.08 C233.306675,23.8533272 235.266656,22.8933368 237.48,22.2 C239.693344,21.5066632 241.733324,21.16 243.6,21.16 C246.960017,21.16 249.719989,21.626662 251.88,22.56 C254.040011,23.493338 255.759994,24.8133248 257.04,26.52 C258.320006,28.2266752 259.199998,30.2533216 259.68,32.6 C260.160002,34.9466784 260.4,37.5599856 260.4,40.44 L260.4,64.2 L248.48,64.2 L248.48,41.88 C248.48,38.0399808 247.986672,35.320008 247,33.72 C246.013328,32.119992 244.320012,31.32 241.92,31.32 C241.279997,31.32 240.386672,31.4799984 239.24,31.8 C238.093328,32.1200016 237.14667,32.5199976 236.4,33 C236.773335,34.2266728 237.013333,35.5199932 237.12,36.88 C237.226667,38.2400068 237.28,39.6933256 237.28,41.24 L237.28,64.2 L225.36,64.2 L225.36,41.88 Z M306.32,43.16 C306.32,46.4133496 305.920004,49.37332 305.12,52.04 C304.319996,54.70668 303.146674,56.9999904 301.6,58.92 C300.053326,60.8400096 298.133345,62.333328 295.84,63.4 C293.546655,64.466672 290.906682,65 287.92,65 C286.266658,65 284.720007,64.8400016 283.28,64.52 C281.839993,64.1999984 280.45334,63.7466696 279.12,63.16 L279.12,79 L267.2,79 L267.2,23.56 C268.266672,23.2399984 269.493326,22.9333348 270.88,22.64 C272.266674,22.3466652 273.719992,22.0933344 275.24,21.88 C276.760008,21.6666656 278.306659,21.493334 279.88,21.36 C281.453341,21.226666 282.959993,21.16 284.4,21.16 C287.866684,21.16 290.959986,21.6799948 293.68,22.72 C296.400014,23.7600052 298.693324,25.2266572 300.56,27.12 C302.426676,29.0133428 303.853328,31.3199864 304.84,34.04 C305.826672,36.7600136 306.32,39.7999832 306.32,43.16 Z M294.16,43.48 C294.16,39.7999816 293.333342,36.8533444 291.68,34.64 C290.026658,32.4266556 287.57335,31.32 284.32,31.32 C283.253328,31.32 282.266671,31.3599996 281.36,31.44 C280.453329,31.5200004 279.70667,31.6133328 279.12,31.72 L279.12,53.24 C279.86667,53.7200024 280.839994,54.1199984 282.04,54.44 C283.240006,54.7600016 284.453327,54.92 285.68,54.92 C291.333362,54.92 294.16,51.1067048 294.16,43.48 Z" id="Text" fill="#000000" sketch:type="MSShapeGroup"></path>
        <path d="M321.56,53.52 C323.746678,53.52 325.293329,53.3066688 326.2,52.88 C327.106671,52.4533312 327.56,51.6266728 327.56,50.4 C327.56,49.4399952 326.973339,48.6000036 325.8,47.88 C324.626661,47.1599964 322.840012,46.3466712 320.44,45.44 C318.573324,44.7466632 316.880008,44.0266704 315.36,43.28 C313.839992,42.5333296 312.546672,41.6400052 311.48,40.6 C310.413328,39.5599948 309.58667,38.3200072 309,36.88 C308.41333,35.4399928 308.12,33.7066768 308.12,31.68 C308.12,27.7333136 309.586652,24.6133448 312.52,22.32 C315.453348,20.0266552 319.479974,18.88 324.6,18.88 C327.160013,18.88 329.613322,19.1066644 331.96,19.56 C334.306678,20.0133356 336.173326,20.506664 337.56,21.04 L335.48,30.32 C334.093326,29.8399976 332.586675,29.4133352 330.96,29.04 C329.333325,28.6666648 327.506677,28.48 325.48,28.48 C321.746648,28.48 319.88,29.5199896 319.88,31.6 C319.88,32.0800024 319.959999,32.5066648 320.12,32.88 C320.280001,33.2533352 320.599998,33.6133316 321.08,33.96 C321.560002,34.3066684 322.213329,34.679998 323.04,35.08 C323.866671,35.480002 324.919994,35.9199976 326.2,36.4 C328.813346,37.3600048 330.973325,38.306662 332.68,39.24 C334.386675,40.173338 335.733328,41.1866612 336.72,42.28 C337.706672,43.3733388 338.399998,44.58666 338.8,45.92 C339.200002,47.25334 339.4,48.7999912 339.4,50.56 C339.4,54.7200208 337.840016,57.866656 334.72,60 C331.599984,62.133344 327.186695,63.2 321.48,63.2 C317.746648,63.2 314.640012,62.8800032 312.16,62.24 C309.679988,61.5999968 307.960005,61.0666688 307,60.64 L309,50.96 C311.026677,51.760004 313.106656,52.3866644 315.24,52.84 C317.373344,53.2933356 319.47999,53.52 321.56,53.52 Z M362.52,0 C364.760011,0 366.813324,0.2266644 368.68,0.68 C370.546676,1.1333356 371.986662,1.5733312 373,2 L370.68,11.52 C369.613328,11.0399976 368.45334,10.6800012 367.2,10.44 C365.94666,10.1999988 364.786672,10.08 363.72,10.08 C362.279993,10.08 361.066672,10.279998 360.08,10.68 C359.093328,11.080002 358.320003,11.6266632 357.76,12.32 C357.199997,13.0133368 356.800001,13.8399952 356.56,14.8 C356.319999,15.7600048 356.2,16.7999944 356.2,17.92 L356.2,20 L370.92,20 L370.92,29.92 L356.2,29.92 L356.2,62.08 L344.28,62.08 L344.28,17.76 C344.28,12.3199728 345.813318,8.000016 348.88,4.8 C351.946682,1.599984 356.493303,0 362.52,0 Z" id="sf" fill="#E05A09" sketch:type="MSShapeGroup"></path>
    </g>
</svg>