<?xml version="1.0" encoding="UTF-8" standalone="no"?>
<svg width="583px" height="77px" viewBox="0 0 583 77" version="1.1" xmlns="http://www.w3.org/2000/svg" xmlns:xlink="http://www.w3.org/1999/xlink" xmlns:sketch="http://www.bohemiancoding.com/sketch/ns">
    <title>citycampoak</title>
    <description>Created with Sketch (http://www.bohemiancoding.com/sketch)</description>
    <defs></defs>
    <g id="Page-1" stroke="none" stroke-width="1" fill="none" fill-rule="evenodd" sketch:type="MSPage">
        <path d="M0.6,40.96 C0.6,37.9199848 1.0933284,35.0533468 2.08,32.36 C3.0666716,29.6666532 4.493324,27.32001 6.36,25.32 C8.226676,23.31999 10.49332,21.7333392 13.16,20.56 C15.82668,19.3866608 18.8666496,18.8 22.28,18.8 C24.5200112,18.8 26.573324,18.999998 28.44,19.4 C30.306676,19.800002 32.1199912,20.3733296 33.88,21.12 L31.4,30.64 C30.2799944,30.2133312 29.05334,29.8400016 27.72,29.52 C26.38666,29.1999984 24.8933416,29.04 23.24,29.04 C19.7199824,29.04 17.093342,30.1333224 15.36,32.32 C13.626658,34.5066776 12.76,37.3866488 12.76,40.96 C12.76,44.7466856 13.5733252,47.6799896 15.2,49.76 C16.8266748,51.8400104 19.6666464,52.88 23.72,52.88 C25.1600072,52.88 26.7066584,52.746668 28.36,52.48 C30.0133416,52.213332 31.5333264,51.7866696 32.92,51.2 L34.6,60.96 C33.2133264,61.5466696 31.4800104,62.0533312 29.4,62.48 C27.3199896,62.9066688 25.0266792,63.12 22.52,63.12 C18.6799808,63.12 15.3733472,62.5466724 12.6,61.4 C9.8266528,60.2533276 7.5466756,58.6933432 5.76,56.72 C3.9733244,54.7466568 2.6666708,52.4133468 1.84,49.72 C1.0133292,47.0266532 0.6,44.1066824 0.6,40.96 Z M50.52,62 L38.6,62 L38.6,19.92 L50.52,19.92 L50.52,62 Z M51.64,7.76 C51.64,9.9466776 50.9333404,11.6666604 49.52,12.92 C48.1066596,14.1733396 46.4400096,14.8 44.52,14.8 C42.5999904,14.8 40.9333404,14.1733396 39.52,12.92 C38.1066596,11.6666604 37.4,9.9466776 37.4,7.76 C37.4,5.5733224 38.1066596,3.8533396 39.52,2.6 C40.9333404,1.3466604 42.5999904,0.72 44.52,0.72 C46.4400096,0.72 48.1066596,1.3466604 49.52,2.6 C50.9333404,3.8533396 51.64,5.5733224 51.64,7.76 Z M57.32,9.44 L69.24,7.52 L69.24,19.92 L83.56,19.92 L83.56,29.84 L69.24,29.84 L69.24,44.64 C69.24,47.1466792 69.6799956,49.1466592 70.56,50.64 C71.4400044,52.1333408 73.21332,52.88 75.88,52.88 C77.1600064,52.88 78.4799932,52.7600012 79.84,52.52 C81.2000068,52.2799988 82.4399944,51.9466688 83.56,51.52 L85.24,60.8 C83.7999928,61.3866696 82.2000088,61.8933312 80.44,62.32 C78.6799912,62.7466688 76.5200128,62.96 73.96,62.96 C70.7066504,62.96 68.013344,62.5200044 65.88,61.64 C63.746656,60.7599956 62.0400064,59.5333412 60.76,57.96 C59.4799936,56.3866588 58.5866692,54.4800112 58.08,52.24 C57.5733308,49.9999888 57.32,47.5200136 57.32,44.8 L57.32,9.44 Z M127.4,19.92 C124.999988,28.0267072 122.493346,35.6266312 119.88,42.72 C117.266654,49.8133688 114.413349,56.6933 111.32,63.36 C110.199994,65.760012 109.080006,67.7999916 107.96,69.48 C106.839994,71.1600084 105.61334,72.5466612 104.28,73.64 C102.94666,74.7333388 101.440008,75.5333308 99.76,76.04 C98.0799916,76.5466692 96.1200112,76.8 93.88,76.8 C92.013324,76.8 90.2933412,76.6266684 88.72,76.28 C87.1466588,75.9333316 85.8533384,75.5466688 84.84,75.12 L86.92,65.6 C88.1466728,66.0266688 89.2399952,66.3199992 90.2,66.48 C91.1600048,66.6400008 92.173328,66.72 93.24,66.72 C95.373344,66.72 97.0133276,66.1466724 98.16,65 C99.3066724,63.8533276 100.279996,62.2666768 101.08,60.24 C98.3599864,54.90664 95.6400136,48.9200332 92.92,42.28 C90.1999864,35.6399668 87.640012,28.186708 85.24,19.92 L97.88,19.92 C98.413336,22.0000104 99.0399964,24.2533212 99.76,26.68 C100.480004,29.1066788 101.239996,31.5599876 102.04,34.04 C102.840004,36.5200124 103.653329,38.9333216 104.48,41.28 C105.306671,43.6266784 106.09333,45.7599904 106.84,47.68 C107.533337,45.7599904 108.25333,43.6266784 109,41.28 C109.74667,38.9333216 110.479996,36.5200124 111.2,34.04 C111.920004,31.5599876 112.61333,29.1066788 113.28,26.68 C113.94667,24.2533212 114.546664,22.0000104 115.08,19.92 L127.4,19.92 Z" id="city" fill="#669940" sketch:type="MSShapeGroup"></path>
        <path d="M126.6,39.96 C126.6,36.9199848 127.093328,34.0533468 128.08,31.36 C129.066672,28.6666532 130.493324,26.32001 132.36,24.32 C134.226676,22.31999 136.49332,20.7333392 139.16,19.56 C141.82668,18.3866608 144.86665,17.8 148.28,17.8 C150.520011,17.8 152.573324,17.999998 154.44,18.4 C156.306676,18.800002 158.119991,19.3733296 159.88,20.12 L157.4,29.64 C156.279994,29.2133312 155.05334,28.8400016 153.72,28.52 C152.38666,28.1999984 150.893342,28.04 149.24,28.04 C145.719982,28.04 143.093342,29.1333224 141.36,31.32 C139.626658,33.5066776 138.76,36.3866488 138.76,39.96 C138.76,43.7466856 139.573325,46.6799896 141.2,48.76 C142.826675,50.8400104 145.666646,51.88 149.72,51.88 C151.160007,51.88 152.706658,51.746668 154.36,51.48 C156.013342,51.213332 157.533326,50.7866696 158.92,50.2 L160.6,59.96 C159.213326,60.5466696 157.48001,61.0533312 155.4,61.48 C153.31999,61.9066688 151.026679,62.12 148.52,62.12 C144.679981,62.12 141.373347,61.5466724 138.6,60.4 C135.826653,59.2533276 133.546676,57.6933432 131.76,55.72 C129.973324,53.7466568 128.666671,51.4133468 127.84,48.72 C127.013329,46.0266532 126.6,43.1066824 126.6,39.96 Z M177.72,17.8 C181.240018,17.8 184.173322,18.199996 186.52,19 C188.866678,19.800004 190.74666,20.9466592 192.16,22.44 C193.57334,23.9333408 194.57333,25.746656 195.16,27.88 C195.74667,30.013344 196.04,32.3866536 196.04,35 L196.04,59.8 C194.333325,60.1733352 191.960015,60.6133308 188.92,61.12 C185.879985,61.6266692 182.200022,61.88 177.88,61.88 C175.159986,61.88 172.693344,61.6400024 170.48,61.16 C168.266656,60.6799976 166.360008,59.8933388 164.76,58.8 C163.159992,57.7066612 161.933338,56.2800088 161.08,54.52 C160.226662,52.7599912 159.8,50.6000128 159.8,48.04 C159.8,45.5866544 160.293328,43.5066752 161.28,41.8 C162.266672,40.0933248 163.586658,38.7333384 165.24,37.72 C166.893342,36.7066616 168.786656,35.9733356 170.92,35.52 C173.053344,35.0666644 175.266655,34.84 177.56,34.84 C179.106674,34.84 180.479994,34.906666 181.68,35.04 C182.880006,35.173334 183.85333,35.3466656 184.6,35.56 L184.6,34.44 C184.6,32.4133232 183.986673,30.7866728 182.76,29.56 C181.533327,28.3333272 179.400015,27.72 176.36,27.72 C174.333323,27.72 172.333343,27.8666652 170.36,28.16 C168.386657,28.4533348 166.680007,28.866664 165.24,29.4 L163.72,19.8 C164.413337,19.5866656 165.279995,19.3600012 166.32,19.12 C167.360005,18.8799988 168.493327,18.6666676 169.72,18.48 C170.946673,18.2933324 172.239993,18.133334 173.6,18 C174.960007,17.866666 176.333326,17.8 177.72,17.8 Z M178.68,52.68 C179.853339,52.68 180.973328,52.6533336 182.04,52.6 C183.106672,52.5466664 183.959997,52.4666672 184.6,52.36 L184.6,43.32 C184.119998,43.2133328 183.400005,43.1066672 182.44,43 C181.479995,42.8933328 180.600004,42.84 179.8,42.84 C178.679994,42.84 177.626672,42.906666 176.64,43.04 C175.653328,43.173334 174.78667,43.4266648 174.04,43.8 C173.29333,44.1733352 172.706669,44.6799968 172.28,45.32 C171.853331,45.9600032 171.64,46.7599952 171.64,47.72 C171.64,49.586676 172.26666,50.8799964 173.52,51.6 C174.77334,52.3200036 176.493322,52.68 178.68,52.68 Z M225.96,38.68 C225.96,34.8399808 225.466672,32.120008 224.48,30.52 C223.493328,28.919992 221.800012,28.12 219.4,28.12 C218.65333,28.12 217.880004,28.1599996 217.08,28.24 C216.279996,28.3200004 215.50667,28.4133328 214.76,28.52 L214.76,61 L202.84,61 L202.84,20.36 C203.853338,20.093332 205.039993,19.8133348 206.4,19.52 C207.760007,19.2266652 209.199992,18.9600012 210.72,18.72 C212.240008,18.4799988 213.799992,18.293334 215.4,18.16 C217.000008,18.026666 218.573326,17.96 220.12,17.96 C223.160015,17.96 225.626657,18.3466628 227.52,19.12 C229.413343,19.8933372 230.973327,20.813328 232.2,21.88 C233.906675,20.6533272 235.866656,19.6933368 238.08,19 C240.293344,18.3066632 242.333324,17.96 244.2,17.96 C247.560017,17.96 250.319989,18.426662 252.48,19.36 C254.640011,20.293338 256.359994,21.6133248 257.64,23.32 C258.920006,25.0266752 259.799998,27.0533216 260.28,29.4 C260.760002,31.7466784 261,34.3599856 261,37.24 L261,61 L249.08,61 L249.08,38.68 C249.08,34.8399808 248.586672,32.120008 247.6,30.52 C246.613328,28.919992 244.920012,28.12 242.52,28.12 C241.879997,28.12 240.986672,28.2799984 239.84,28.6 C238.693328,28.9200016 237.74667,29.3199976 237,29.8 C237.373335,31.0266728 237.613333,32.3199932 237.72,33.68 C237.826667,35.0400068 237.88,36.4933256 237.88,38.04 L237.88,61 L225.96,61 L225.96,38.68 Z M306.92,39.96 C306.92,43.2133496 306.520004,46.17332 305.72,48.84 C304.919996,51.50668 303.746674,53.7999904 302.2,55.72 C300.653326,57.6400096 298.733345,59.133328 296.44,60.2 C294.146655,61.266672 291.506682,61.8 288.52,61.8 C286.866658,61.8 285.320007,61.6400016 283.88,61.32 C282.439993,60.9999984 281.05334,60.5466696 279.72,59.96 L279.72,75.8 L267.8,75.8 L267.8,20.36 C268.866672,20.0399984 270.093326,19.7333348 271.48,19.44 C272.866674,19.1466652 274.319992,18.8933344 275.84,18.68 C277.360008,18.4666656 278.906659,18.293334 280.48,18.16 C282.053341,18.026666 283.559993,17.96 285,17.96 C288.466684,17.96 291.559986,18.4799948 294.28,19.52 C297.000014,20.5600052 299.293324,22.0266572 301.16,23.92 C303.026676,25.8133428 304.453328,28.1199864 305.44,30.84 C306.426672,33.5600136 306.92,36.5999832 306.92,39.96 Z M294.76,40.28 C294.76,36.5999816 293.933342,33.6533444 292.28,31.44 C290.626658,29.2266556 288.17335,28.12 284.92,28.12 C283.853328,28.12 282.866671,28.1599996 281.96,28.24 C281.053329,28.3200004 280.30667,28.4133328 279.72,28.52 L279.72,50.04 C280.46667,50.5200024 281.439994,50.9199984 282.64,51.24 C283.840006,51.5600016 285.053327,51.72 286.28,51.72 C291.933362,51.72 294.76,47.9067048 294.76,40.28 Z" id="camp" fill="#000000" sketch:type="MSShapeGroup"></path>
        <path d="M351.96,41.88 C351.96,45.1866832 351.480005,48.2133196 350.52,50.96 C349.559995,53.7066804 348.173342,56.0533236 346.36,58 C344.546658,59.9466764 342.373346,61.453328 339.84,62.52 C337.306654,63.586672 334.466682,64.12 331.32,64.12 C328.226651,64.12 325.413346,63.586672 322.88,62.52 C320.346654,61.453328 318.173342,59.9466764 316.36,58 C314.546658,56.0533236 313.133338,53.7066804 312.12,50.96 C311.106662,48.2133196 310.6,45.1866832 310.6,41.88 C310.6,38.5733168 311.119995,35.5600136 312.16,32.84 C313.200005,30.1199864 314.639991,27.8000096 316.48,25.88 C318.320009,23.9599904 320.506654,22.466672 323.04,21.4 C325.573346,20.333328 328.333318,19.8 331.32,19.8 C334.360015,19.8 337.146654,20.333328 339.68,21.4 C342.213346,22.466672 344.386658,23.9599904 346.2,25.88 C348.013342,27.8000096 349.426662,30.1199864 350.44,32.84 C351.453338,35.5600136 351.96,38.5733168 351.96,41.88 Z M339.8,41.88 C339.8,38.1999816 339.066674,35.3066772 337.6,33.2 C336.133326,31.0933228 334.040014,30.04 331.32,30.04 C328.599986,30.04 326.493341,31.0933228 325,33.2 C323.506659,35.3066772 322.76,38.1999816 322.76,41.88 C322.76,45.5600184 323.506659,48.4799892 325,50.64 C326.493341,52.8000108 328.599986,53.88 331.32,53.88 C334.040014,53.88 336.133326,52.8000108 337.6,50.64 C339.066674,48.4799892 339.8,45.5600184 339.8,41.88 Z M372.28,19.8 C375.800018,19.8 378.733322,20.199996 381.08,21 C383.426678,21.800004 385.30666,22.9466592 386.72,24.44 C388.13334,25.9333408 389.13333,27.746656 389.72,29.88 C390.30667,32.013344 390.6,34.3866536 390.6,37 L390.6,61.8 C388.893325,62.1733352 386.520015,62.6133308 383.48,63.12 C380.439985,63.6266692 376.760022,63.88 372.44,63.88 C369.719986,63.88 367.253344,63.6400024 365.04,63.16 C362.826656,62.6799976 360.920008,61.8933388 359.32,60.8 C357.719992,59.7066612 356.493338,58.2800088 355.64,56.52 C354.786662,54.7599912 354.36,52.6000128 354.36,50.04 C354.36,47.5866544 354.853328,45.5066752 355.84,43.8 C356.826672,42.0933248 358.146658,40.7333384 359.8,39.72 C361.453342,38.7066616 363.346656,37.9733356 365.48,37.52 C367.613344,37.0666644 369.826655,36.84 372.12,36.84 C373.666674,36.84 375.039994,36.906666 376.24,37.04 C377.440006,37.173334 378.41333,37.3466656 379.16,37.56 L379.16,36.44 C379.16,34.4133232 378.546673,32.7866728 377.32,31.56 C376.093327,30.3333272 373.960015,29.72 370.92,29.72 C368.893323,29.72 366.893343,29.8666652 364.92,30.16 C362.946657,30.4533348 361.240007,30.866664 359.8,31.4 L358.28,21.8 C358.973337,21.5866656 359.839995,21.3600012 360.88,21.12 C361.920005,20.8799988 363.053327,20.6666676 364.28,20.48 C365.506673,20.2933324 366.799993,20.133334 368.16,20 C369.520007,19.866666 370.893326,19.8 372.28,19.8 Z M373.24,54.68 C374.413339,54.68 375.533328,54.6533336 376.6,54.6 C377.666672,54.5466664 378.519997,54.4666672 379.16,54.36 L379.16,45.32 C378.679998,45.2133328 377.960005,45.1066672 377,45 C376.039995,44.8933328 375.160004,44.84 374.36,44.84 C373.239994,44.84 372.186672,44.906666 371.2,45.04 C370.213328,45.173334 369.34667,45.4266648 368.6,45.8 C367.85333,46.1733352 367.266669,46.6799968 366.84,47.32 C366.413331,47.9600032 366.2,48.7599952 366.2,49.72 C366.2,51.586676 366.82666,52.8799964 368.08,53.6 C369.33334,54.3200036 371.053322,54.68 373.24,54.68 Z M409.32,36.12 C410.493339,34.8399936 411.70666,33.5066736 412.96,32.12 C414.21334,30.7333264 415.426661,29.3600068 416.6,28 C417.773339,26.6399932 418.879995,25.3466728 419.92,24.12 C420.960005,22.8933272 421.85333,21.8266712 422.6,20.92 L436.76,20.92 C433.933319,24.1733496 431.173347,27.2799852 428.48,30.24 C425.786653,33.2000148 422.840016,36.2533176 419.64,39.4 C421.240008,40.8400072 422.893325,42.55999 424.6,44.56 C426.306675,46.56001 427.959992,48.626656 429.56,50.76 C431.160008,52.893344 432.62666,55.026656 433.96,57.16 C435.29334,59.293344 436.413329,61.2399912 437.32,63 L423.64,63 C422.786662,61.6133264 421.813339,60.0800084 420.72,58.4 C419.626661,56.7199916 418.466673,55.0400084 417.24,53.36 C416.013327,51.6799916 414.720007,50.0666744 413.36,48.52 C411.999993,46.9733256 410.65334,45.666672 409.32,44.6 L409.32,63 L397.4,63 L397.4,2.84 L409.32,0.92 L409.32,36.12 Z M456.52,63.8 C453.053316,63.7466664 450.240011,63.3733368 448.08,62.68 C445.919989,61.9866632 444.21334,61.0133396 442.96,59.76 C441.70666,58.5066604 440.853336,56.9866756 440.4,55.2 C439.946664,53.4133244 439.72,51.4000112 439.72,49.16 L439.72,2.84 L451.64,0.92 L451.64,46.76 C451.64,47.826672 451.719999,48.7866624 451.88,49.64 C452.040001,50.4933376 452.346664,51.2133304 452.8,51.8 C453.253336,52.3866696 453.906662,52.8666648 454.76,53.24 C455.613338,53.6133352 456.759993,53.8533328 458.2,53.96 L456.52,63.8 Z M477.32,19.8 C480.840018,19.8 483.773322,20.199996 486.12,21 C488.466678,21.800004 490.34666,22.9466592 491.76,24.44 C493.17334,25.9333408 494.17333,27.746656 494.76,29.88 C495.34667,32.013344 495.64,34.3866536 495.64,37 L495.64,61.8 C493.933325,62.1733352 491.560015,62.6133308 488.52,63.12 C485.479985,63.6266692 481.800022,63.88 477.48,63.88 C474.759986,63.88 472.293344,63.6400024 470.08,63.16 C467.866656,62.6799976 465.960008,61.8933388 464.36,60.8 C462.759992,59.7066612 461.533338,58.2800088 460.68,56.52 C459.826662,54.7599912 459.4,52.6000128 459.4,50.04 C459.4,47.5866544 459.893328,45.5066752 460.88,43.8 C461.866672,42.0933248 463.186658,40.7333384 464.84,39.72 C466.493342,38.7066616 468.386656,37.9733356 470.52,37.52 C472.653344,37.0666644 474.866655,36.84 477.16,36.84 C478.706674,36.84 480.079994,36.906666 481.28,37.04 C482.480006,37.173334 483.45333,37.3466656 484.2,37.56 L484.2,36.44 C484.2,34.4133232 483.586673,32.7866728 482.36,31.56 C481.133327,30.3333272 479.000015,29.72 475.96,29.72 C473.933323,29.72 471.933343,29.8666652 469.96,30.16 C467.986657,30.4533348 466.280007,30.866664 464.84,31.4 L463.32,21.8 C464.013337,21.5866656 464.879995,21.3600012 465.92,21.12 C466.960005,20.8799988 468.093327,20.6666676 469.32,20.48 C470.546673,20.2933324 471.839993,20.133334 473.2,20 C474.560007,19.866666 475.933326,19.8 477.32,19.8 Z M478.28,54.68 C479.453339,54.68 480.573328,54.6533336 481.64,54.6 C482.706672,54.5466664 483.559997,54.4666672 484.2,54.36 L484.2,45.32 C483.719998,45.2133328 483.000005,45.1066672 482.04,45 C481.079995,44.8933328 480.200004,44.84 479.4,44.84 C478.279994,44.84 477.226672,44.906666 476.24,45.04 C475.253328,45.173334 474.38667,45.4266648 473.64,45.8 C472.89333,46.1733352 472.306669,46.6799968 471.88,47.32 C471.453331,47.9600032 471.24,48.7599952 471.24,49.72 C471.24,51.586676 471.86666,52.8799964 473.12,53.6 C474.37334,54.3200036 476.093322,54.68 478.28,54.68 Z M502.44,22.36 C504.466677,21.7733304 507.079984,21.2266692 510.28,20.72 C513.480016,20.2133308 516.839982,19.96 520.36,19.96 C523.933351,19.96 526.906655,20.426662 529.28,21.36 C531.653345,22.293338 533.533326,23.6133248 534.92,25.32 C536.306674,27.0266752 537.29333,29.0533216 537.88,31.4 C538.46667,33.7466784 538.76,36.3599856 538.76,39.24 L538.76,63 L526.84,63 L526.84,40.68 C526.84,36.8399808 526.333338,34.120008 525.32,32.52 C524.306662,30.919992 522.413347,30.12 519.64,30.12 C518.786662,30.12 517.880005,30.1599996 516.92,30.24 C515.959995,30.3200004 515.10667,30.4133328 514.36,30.52 L514.36,63 L502.44,63 L502.44,22.36 Z M582.68,61.64 C581.613328,61.9600016 580.386674,62.2666652 579,62.56 C577.613326,62.8533348 576.160008,63.1066656 574.64,63.32 C573.119992,63.5333344 571.573341,63.706666 570,63.84 C568.426659,63.973334 566.920007,64.04 565.48,64.04 C562.013316,64.04 558.920014,63.5333384 556.2,62.52 C553.479986,61.5066616 551.186676,60.0533428 549.32,58.16 C547.453324,56.2666572 546.026672,53.9733468 545.04,51.28 C544.053328,48.5866532 543.56,45.5600168 543.56,42.2 C543.56,38.7866496 543.986662,35.7066804 544.84,32.96 C545.693338,30.2133196 546.919992,27.8800096 548.52,25.96 C550.120008,24.0399904 552.079988,22.5733384 554.4,21.56 C556.720012,20.5466616 559.373318,20.04 562.36,20.04 C564.013342,20.04 565.493327,20.1999984 566.8,20.52 C568.106673,20.8400016 569.42666,21.2933304 570.76,21.88 L570.76,2.84 L582.68,0.92 L582.68,61.64 Z M555.72,41.64 C555.72,45.3200184 556.546658,48.2799888 558.2,50.52 C559.853342,52.7600112 562.30665,53.88 565.56,53.88 C566.626672,53.88 567.613329,53.8400004 568.52,53.76 C569.426671,53.6799996 570.17333,53.5866672 570.76,53.48 L570.76,31.8 C570.01333,31.3199976 569.040006,30.9200016 567.84,30.6 C566.639994,30.2799984 565.426673,30.12 564.2,30.12 C558.546638,30.12 555.72,33.9599616 555.72,41.64 Z" id="oakland" fill="#669940" sketch:type="MSShapeGroup"></path>
    </g>
</svg>