<?xml version="1.0" encoding="UTF-8" standalone="no"?>
<svg width="1502px" height="387px" viewBox="0 0 1502 387" version="1.1" xmlns="http://www.w3.org/2000/svg" xmlns:xlink="http://www.w3.org/1999/xlink" xmlns:sketch="http://www.bohemiancoding.com/sketch/ns">
    <title>Untitled 11</title>
    <description>Created with Sketch (http://www.bohemiancoding.com/sketch)</description>
    <defs></defs>
    <g id="Page-1" stroke="none" stroke-width="1" fill="none" fill-rule="evenodd" sketch:type="MSPage">
        <g id="Group" sketch:type="MSLayerGroup" fill="#F6A623">
            <path d="M339.555198,349 L44.4448023,349 C35.3994536,349 28,343.15106 28,336.002355 C28,328.84894 35.3994536,323 44.4448023,323 L339.555198,323 C348.600546,323 356,328.84894 356,336.002355 C356,343.15106 348.600546,349 339.555198,349 Z" id="Shape" sketch:type="MSShapeGroup"></path>
            <path d="M389,374 C389,381.15 381.603541,387 372.561853,387 L16.4381468,387 C7.40117308,387 0,381.15 0,374 C0,366.85 7.39645895,361 16.4381468,361 L372.561853,361 C381.603541,361 389,366.85 389,374 L389,374 Z" id="Shape" sketch:type="MSShapeGroup"></path>
            <path d="M367,116.33705 C367,124.952392 360.057745,132 351.576962,132 L34.4183189,132 C25.9375356,132 19,124.952392 19,116.33705 L19,104.66295 C19,96.0476084 25.9375356,89 34.4183189,89 L351.576962,89 C360.057745,89 367,96.0476084 367,104.66295 L367,116.33705 L367,116.33705 Z" id="Shape" sketch:type="MSShapeGroup"></path>
            <path d="M87.2540807,76 C78.7706374,76 77.5479264,72.0764165 84.5395677,67.2767388 L177.295657,3.59975829 C184.282577,-1.19991943 195.721299,-1.19991943 202.70822,3.59975829 L295.464309,67.2767388 C302.451229,72.0764165 301.228518,76 292.745075,76 L87.2540807,76 L87.2540807,76 Z" id="Shape" sketch:type="MSShapeGroup"></path>
        </g>
        <g id="path3-+-path3" sketch:type="MSLayerGroup" transform="translate(195.500000, 226.261719) rotate(8.000000) translate(-195.500000, -226.261719) translate(36.000000, 145.261719)" fill="#4990E2">
            <path d="M161,81.085403 C161,79.0325679 160.98725,76.8943299 160.824681,74.8731256 L138.74408,67.971298 C137.593352,62.6320291 135.817851,57.4983599 133.353825,52.7885426 L145.524135,33.4684864 C143.142987,30.1757263 140.538707,27.044283 137.698543,24.1532334 L116.48816,32.7789363 C112.175319,29.4418932 107.540528,26.5951265 102.405282,24.4980084 L99.2750455,2.24261949 C95.3638434,1.25574039 91.3888889,0.408036551 87.2800546,0 L76.5027322,20.0096064 C70.8606557,20.2341846 65.4640255,21.3033037 60.3319672,22.941776 L43.4663024,7.75902062 C39.7814208,9.51452671 36.147541,11.5294049 32.8611111,13.797329 L37.5564663,36.0527179 C33.5560109,39.6997423 30.1962659,43.8844892 27.298725,48.4741097 L4.17577413,47.6169166 C2.51183971,51.2734302 1.10928962,55.0786082 0.00318761384,59.0039831 L18.2586521,73.1524133 C17.920765,75.6512418 17.7358834,78.1627226 17.7358834,80.7406279 C17.7358834,83.5431115 18.102459,86.1558107 18.4307832,88.8475867 L0,103.166823 C1.04553734,107.092198 2.45765027,110.704428 4.17258652,114.383083 L27.4708561,113.522727 C30.352459,117.900422 33.753643,121.930178 37.5564663,125.425375 L32.68898,148.373477 C36.048725,150.641401 39.4084699,152.672095 43.1188525,154.408622 L60.6794171,138.710286 C65.7094718,140.177952 70.8606557,141.047798 76.1520947,141.29768 L87.2800546,162 C91.379326,161.604616 95.3638434,160.877109 99.2750455,159.93135 L102.405282,136.812441 C107.256831,134.810216 111.837432,132.105787 115.965392,129.047095 L137.698543,137.843604 C140.538707,134.971532 143.146175,131.8306 145.524135,128.528351 L133.178506,108.860356 C135.617031,104.261246 137.382969,99.4375586 138.568761,94.1963449 L160.821494,87.1237113 C160.974499,85.1056701 161,83.1382381 161,81.085403 L161,81.085403 L161,81.085403 Z M108,81.0016014 C108,97.0253465 95.0221437,110 79.0016014,110 C62.9778563,110 50,97.0253465 50,81.0016014 C50,64.9778563 62.9778563,52 79.0016014,52 C95.0253465,52 108,64.9778563 108,81.0016014 L108,81.0016014 L108,81.0016014 Z" id="path3" sketch:type="MSShapeGroup"></path>
            <path d="M318,81.085403 C318,79.0325679 317.98725,76.8943299 317.824681,74.8731256 L295.74408,67.971298 C294.593352,62.6320291 292.817851,57.4983599 290.353825,52.7885426 L302.524135,33.4684864 C300.142987,30.1757263 297.538707,27.044283 294.698543,24.1532334 L273.48816,32.7789363 C269.175319,29.4418932 264.540528,26.5951265 259.405282,24.4980084 L256.275046,2.24261949 C252.363843,1.25574039 248.388889,0.408036551 244.280055,0 L233.502732,20.0096064 C227.860656,20.2341846 222.464026,21.3033037 217.331967,22.941776 L200.466302,7.75902062 C196.781421,9.51452671 193.147541,11.5294049 189.861111,13.797329 L194.556466,36.0527179 C190.556011,39.6997423 187.196266,43.8844892 184.298725,48.4741097 L161.175774,47.6169166 C159.51184,51.2734302 158.10929,55.0786082 157.003188,59.0039831 L175.258652,73.1524133 C174.920765,75.6512418 174.735883,78.1627226 174.735883,80.7406279 C174.735883,83.5431115 175.102459,86.1558107 175.430783,88.8475867 L157,103.166823 C158.045537,107.092198 159.45765,110.704428 161.172587,114.383083 L184.470856,113.522727 C187.352459,117.900422 190.753643,121.930178 194.556466,125.425375 L189.68898,148.373477 C193.048725,150.641401 196.40847,152.672095 200.118852,154.408622 L217.679417,138.710286 C222.709472,140.177952 227.860656,141.047798 233.152095,141.29768 L244.280055,162 C248.379326,161.604616 252.363843,160.877109 256.275046,159.93135 L259.405282,136.812441 C264.256831,134.810216 268.837432,132.105787 272.965392,129.047095 L294.698543,137.843604 C297.538707,134.971532 300.146175,131.8306 302.524135,128.528351 L290.178506,108.860356 C292.617031,104.261246 294.382969,99.4375586 295.568761,94.1963449 L317.821494,87.1237113 C317.974499,85.1056701 318,83.1382381 318,81.085403 L318,81.085403 L318,81.085403 Z M265,81.0016014 C265,97.0253465 252.022144,110 236.001601,110 C219.977856,110 207,97.0253465 207,81.0016014 C207,64.9778563 219.977856,52 236.001601,52 C252.025347,52 265,64.9778563 265,81.0016014 L265,81.0016014 L265,81.0016014 Z" id="path3" sketch:type="MSShapeGroup"></path>
        </g>
        <path d="M901.753906,278.953125 L871.96875,278.953125 L871.96875,215.183594 C871.96875,207.30595 870.650404,201.397806 868.013672,197.458984 C865.37694,193.520163 861.226591,191.550781 855.5625,191.550781 C847.945274,191.550781 842.411476,194.350232 838.960938,199.949219 C835.510399,205.548205 833.785156,214.760353 833.785156,227.585938 L833.785156,278.953125 L804,278.953125 L804,169.773438 L826.753906,169.773438 L830.757812,183.738281 L832.417969,183.738281 C835.347671,178.725235 839.579399,174.802749 845.113281,171.970703 C850.647163,169.138658 856.994756,167.722656 864.15625,167.722656 C880.497478,167.722656 891.565075,173.061145 897.359375,183.738281 L899.996094,183.738281 C902.925796,178.660131 907.238904,174.721368 912.935547,171.921875 C918.63219,169.122382 925.061162,167.722656 932.222656,167.722656 C944.59251,167.722656 953.95114,170.896453 960.298828,177.244141 C966.646516,183.591829 969.820312,193.764253 969.820312,207.761719 L969.820312,278.953125 L939.9375,278.953125 L939.9375,215.183594 C939.9375,207.30595 938.619154,201.397806 935.982422,197.458984 C933.34569,193.520163 929.195341,191.550781 923.53125,191.550781 C916.239547,191.550781 910.787127,194.154922 907.173828,199.363281 C903.560529,204.571641 901.753906,212.839787 901.753906,224.167969 L901.753906,278.953125 Z M1064.72266,278.953125 L1058.96094,264.109375 L1058.17969,264.109375 C1053.16664,270.424511 1048.00719,274.802722 1042.70117,277.244141 C1037.39516,279.685559 1030.47791,280.90625 1021.94922,280.90625 C1011.4674,280.90625 1003.21552,277.911488 997.193359,271.921875 C991.171194,265.932262 988.160156,257.403701 988.160156,246.335938 C988.160156,234.747338 992.21285,226.202501 1000.31836,220.701172 C1008.42387,215.199842 1020.64705,212.156253 1036.98828,211.570312 L1055.93359,210.984375 L1055.93359,206.199219 C1055.93359,195.131455 1050.26959,189.597656 1038.94141,189.597656 C1030.2174,189.597656 1019.9636,192.234349 1008.17969,197.507812 L998.316406,177.390625 C1010.88157,170.815071 1024.81373,167.527344 1040.11328,167.527344 C1054.76179,167.527344 1065.99215,170.717416 1073.80469,177.097656 C1081.61723,183.477896 1085.52344,193.17832 1085.52344,206.199219 L1085.52344,278.953125 L1064.72266,278.953125 Z M1055.93359,228.367188 L1044.41016,228.757812 C1035.75126,229.01823 1029.30601,230.580715 1025.07422,233.445312 C1020.84243,236.30991 1018.72656,240.671846 1018.72656,246.53125 C1018.72656,254.929729 1023.54422,259.128906 1033.17969,259.128906 C1040.08076,259.128906 1045.59829,257.143249 1049.73242,253.171875 C1053.86656,249.200501 1055.93359,243.927116 1055.93359,237.351562 L1055.93359,228.367188 Z M1139.80078,219.578125 L1152.78906,202.976562 L1183.35547,169.773438 L1216.94922,169.773438 L1173.58984,217.136719 L1219.58594,278.953125 L1185.21094,278.953125 L1153.76562,234.714844 L1140.97266,244.96875 L1140.97266,278.953125 L1111.1875,278.953125 L1111.1875,127 L1140.97266,127 L1140.97266,194.773438 L1139.41016,219.578125 L1139.80078,219.578125 Z M1275.62109,280.90625 C1258.04288,280.90625 1244.30604,276.056038 1234.41016,266.355469 C1224.51427,256.654899 1219.56641,242.918058 1219.56641,225.144531 C1219.56641,206.850169 1224.13993,192.70643 1233.28711,182.712891 C1242.43429,172.719351 1255.08065,167.722656 1271.22656,167.722656 C1286.65633,167.722656 1298.66793,172.117144 1307.26172,180.90625 C1315.85551,189.695356 1320.15234,201.837162 1320.15234,217.332031 L1320.15234,231.785156 L1249.74219,231.785156 C1250.06771,240.24874 1252.5742,246.856747 1257.26172,251.609375 C1261.94924,256.362003 1268.5247,258.738281 1276.98828,258.738281 C1283.56383,258.738281 1289.78122,258.054694 1295.64062,256.6875 C1301.50003,255.320306 1307.61976,253.139338 1314,250.144531 L1314,273.191406 C1308.79164,275.795586 1303.22529,277.732416 1297.30078,279.001953 C1291.37627,280.271491 1284.14978,280.90625 1275.62109,280.90625 Z M1271.42188,188.914062 C1265.10674,188.914062 1260.15887,190.915996 1256.57812,194.919922 C1252.99738,198.923848 1250.94662,204.60413 1250.42578,211.960938 L1292.22266,211.960938 C1292.09245,204.60413 1290.17189,198.923848 1286.46094,194.919922 C1282.74998,190.915996 1277.73701,188.914062 1271.42188,188.914062 Z M1400.30859,167.722656 C1404.34507,167.722656 1407.6979,168.015622 1410.36719,168.601562 L1408.12109,196.53125 C1405.71223,195.880205 1402.78257,195.554688 1399.33203,195.554688 C1389.82678,195.554688 1382.42125,197.996069 1377.11523,202.878906 C1371.80922,207.761743 1369.15625,214.597612 1369.15625,223.386719 L1369.15625,278.953125 L1339.37109,278.953125 L1339.37109,169.773438 L1361.92969,169.773438 L1366.32422,188.132812 L1367.78906,188.132812 C1371.1745,182.01299 1375.74802,177.081399 1381.50977,173.337891 C1387.27151,169.594382 1393.53773,167.722656 1400.30859,167.722656 Z M1501.36328,246.53125 C1501.36328,257.729223 1497.47335,266.257783 1489.69336,272.117188 C1481.91337,277.976592 1470.27612,280.90625 1454.78125,280.90625 C1446.8385,280.90625 1440.06774,280.369146 1434.46875,279.294922 C1428.86976,278.220698 1423.62893,276.641938 1418.74609,274.558594 L1418.74609,249.949219 C1424.27998,252.553398 1430.51364,254.734366 1437.44727,256.492188 C1444.38089,258.250009 1450.48435,259.128906 1455.75781,259.128906 C1466.56516,259.128906 1471.96875,256.003938 1471.96875,249.753906 C1471.96875,247.410145 1471.25261,245.505867 1469.82031,244.041016 C1468.38801,242.576165 1465.91408,240.916025 1462.39844,239.060547 C1458.88279,237.205069 1454.19534,235.040377 1448.33594,232.566406 C1439.93746,229.050764 1433.7689,225.795588 1429.83008,222.800781 C1425.89126,219.805975 1423.0267,216.371764 1421.23633,212.498047 C1419.44595,208.62433 1418.55078,203.855497 1418.55078,198.191406 C1418.55078,188.490837 1422.31051,180.987657 1429.83008,175.681641 C1437.34965,170.375625 1448.01035,167.722656 1461.8125,167.722656 C1474.96361,167.722656 1487.75645,170.587211 1500.19141,176.316406 L1491.20703,197.800781 C1485.73825,195.45702 1480.62763,193.536466 1475.875,192.039062 C1471.12237,190.541659 1466.27216,189.792969 1461.32422,189.792969 C1452.53511,189.792969 1448.14062,192.169247 1448.14062,196.921875 C1448.14062,199.591159 1449.55663,201.902334 1452.38867,203.855469 C1455.22072,205.808604 1461.42183,208.70571 1470.99219,212.546875 C1479.52088,215.997413 1485.77081,219.220037 1489.74219,222.214844 C1493.71356,225.20965 1496.64322,228.660137 1498.53125,232.566406 C1500.41928,236.472676 1501.36328,241.127577 1501.36328,246.53125 Z" id="makers" fill="#4A90E2" sketch:type="MSShapeGroup"></path>
        <path d="M432.976562,280.90625 C398.992018,280.90625 382,262.254093 382,224.949219 C382,206.394438 386.62235,192.218148 395.867188,182.419922 C405.112025,172.621696 418.360591,167.722656 435.613281,167.722656 C448.243553,167.722656 459.571564,170.19659 469.597656,175.144531 L460.808594,198.191406 C456.12107,196.303376 451.759135,194.757167 447.722656,193.552734 C443.686178,192.348301 439.64976,191.746094 435.613281,191.746094 C420.118412,191.746094 412.371094,202.748588 412.371094,224.753906 C412.371094,246.10818 420.118412,256.785156 435.613281,256.785156 C441.342477,256.785156 446.648413,256.02019 451.53125,254.490234 C456.414087,252.960279 461.296851,250.567725 466.179688,247.3125 L466.179688,272.800781 C461.361955,275.860692 456.495467,277.976557 451.580078,279.148438 C446.664689,280.320318 440.463579,280.90625 432.976562,280.90625 Z M485.203125,141.550781 C485.203125,131.850212 490.606717,127 501.414062,127 C512.221408,127 517.625,131.850212 517.625,141.550781 C517.625,146.1732 516.274102,149.770169 513.572266,152.341797 C510.870429,154.913424 506.817735,156.199219 501.414062,156.199219 C490.606717,156.199219 485.203125,151.316455 485.203125,141.550781 Z M516.257812,278.953125 L486.472656,278.953125 L486.472656,169.773438 L516.257812,169.773438 L516.257812,278.953125 Z M568.484375,278.953125 L526.882812,169.773438 L558.035156,169.773438 L579.128906,231.980469 C581.472668,239.858112 582.937497,247.312465 583.523438,254.34375 L584.109375,254.34375 C584.434897,248.093719 585.899727,240.639366 588.503906,231.980469 L609.5,169.773438 L640.652344,169.773438 L599.050781,278.953125 L568.484375,278.953125 Z M650.007812,141.550781 C650.007812,131.850212 655.411404,127 666.21875,127 C677.026096,127 682.429688,131.850212 682.429688,141.550781 C682.429688,146.1732 681.07879,149.770169 678.376953,152.341797 C675.675117,154.913424 671.622423,156.199219 666.21875,156.199219 C655.411404,156.199219 650.007812,151.316455 650.007812,141.550781 Z M681.0625,278.953125 L651.277344,278.953125 L651.277344,169.773438 L681.0625,169.773438 L681.0625,278.953125 Z M751.648438,280.90625 C717.663893,280.90625 700.671875,262.254093 700.671875,224.949219 C700.671875,206.394438 705.294225,192.218148 714.539062,182.419922 C723.7839,172.621696 737.032466,167.722656 754.285156,167.722656 C766.915428,167.722656 778.243439,170.19659 788.269531,175.144531 L779.480469,198.191406 C774.792945,196.303376 770.43101,194.757167 766.394531,193.552734 C762.358053,192.348301 758.321635,191.746094 754.285156,191.746094 C738.790287,191.746094 731.042969,202.748588 731.042969,224.753906 C731.042969,246.10818 738.790287,256.785156 754.285156,256.785156 C760.014352,256.785156 765.320288,256.02019 770.203125,254.490234 C775.085962,252.960279 779.968726,250.567725 784.851562,247.3125 L784.851562,272.800781 C780.03383,275.860692 775.167342,277.976557 770.251953,279.148438 C765.336564,280.320318 759.135454,280.90625 751.648438,280.90625 Z" id="Text" fill="#F5A623" sketch:type="MSShapeGroup"></path>
    </g>
</svg>