<?xml version="1.0" encoding="UTF-8" standalone="no"?>
<svg width="307px" height="77px" viewBox="0 0 307 77" version="1.1" xmlns="http://www.w3.org/2000/svg" xmlns:xlink="http://www.w3.org/1999/xlink" xmlns:sketch="http://www.bohemiancoding.com/sketch/ns">
    <title>citycamp-logo</title>
    <description>Created with Sketch (http://www.bohemiancoding.com/sketch)</description>
    <defs></defs>
    <g id="Page-1" stroke="none" stroke-width="1" fill="none" fill-rule="evenodd" sketch:type="MSPage">
        <path d="M0.6,40.96 C0.6,37.9199848 1.0933284,35.0533468 2.08,32.36 C3.0666716,29.6666532 4.493324,27.32001 6.36,25.32 C8.226676,23.31999 10.49332,21.7333392 13.16,20.56 C15.82668,19.3866608 18.8666496,18.8 22.28,18.8 C24.5200112,18.8 26.573324,18.999998 28.44,19.4 C30.306676,19.800002 32.1199912,20.3733296 33.88,21.12 L31.4,30.64 C30.2799944,30.2133312 29.05334,29.8400016 27.72,29.52 C26.38666,29.1999984 24.8933416,29.04 23.24,29.04 C19.7199824,29.04 17.093342,30.1333224 15.36,32.32 C13.626658,34.5066776 12.76,37.3866488 12.76,40.96 C12.76,44.7466856 13.5733252,47.6799896 15.2,49.76 C16.8266748,51.8400104 19.6666464,52.88 23.72,52.88 C25.1600072,52.88 26.7066584,52.746668 28.36,52.48 C30.0133416,52.213332 31.5333264,51.7866696 32.92,51.2 L34.6,60.96 C33.2133264,61.5466696 31.4800104,62.0533312 29.4,62.48 C27.3199896,62.9066688 25.0266792,63.12 22.52,63.12 C18.6799808,63.12 15.3733472,62.5466724 12.6,61.4 C9.8266528,60.2533276 7.5466756,58.6933432 5.76,56.72 C3.9733244,54.7466568 2.6666708,52.4133468 1.84,49.72 C1.0133292,47.0266532 0.6,44.1066824 0.6,40.96 Z M50.52,62 L38.6,62 L38.6,19.92 L50.52,19.92 L50.52,62 Z M51.64,7.76 C51.64,9.9466776 50.9333404,11.6666604 49.52,12.92 C48.1066596,14.1733396 46.4400096,14.8 44.52,14.8 C42.5999904,14.8 40.9333404,14.1733396 39.52,12.92 C38.1066596,11.6666604 37.4,9.9466776 37.4,7.76 C37.4,5.5733224 38.1066596,3.8533396 39.52,2.6 C40.9333404,1.3466604 42.5999904,0.72 44.52,0.72 C46.4400096,0.72 48.1066596,1.3466604 49.52,2.6 C50.9333404,3.8533396 51.64,5.5733224 51.64,7.76 Z M57.32,9.44 L69.24,7.52 L69.24,19.92 L83.56,19.92 L83.56,29.84 L69.24,29.84 L69.24,44.64 C69.24,47.1466792 69.6799956,49.1466592 70.56,50.64 C71.4400044,52.1333408 73.21332,52.88 75.88,52.88 C77.1600064,52.88 78.4799932,52.7600012 79.84,52.52 C81.2000068,52.2799988 82.4399944,51.9466688 83.56,51.52 L85.24,60.8 C83.7999928,61.3866696 82.2000088,61.8933312 80.44,62.32 C78.6799912,62.7466688 76.5200128,62.96 73.96,62.96 C70.7066504,62.96 68.013344,62.5200044 65.88,61.64 C63.746656,60.7599956 62.0400064,59.5333412 60.76,57.96 C59.4799936,56.3866588 58.5866692,54.4800112 58.08,52.24 C57.5733308,49.9999888 57.32,47.5200136 57.32,44.8 L57.32,9.44 Z M127.4,19.92 C124.999988,28.0267072 122.493346,35.6266312 119.88,42.72 C117.266654,49.8133688 114.413349,56.6933 111.32,63.36 C110.199994,65.760012 109.080006,67.7999916 107.96,69.48 C106.839994,71.1600084 105.61334,72.5466612 104.28,73.64 C102.94666,74.7333388 101.440008,75.5333308 99.76,76.04 C98.0799916,76.5466692 96.1200112,76.8 93.88,76.8 C92.013324,76.8 90.2933412,76.6266684 88.72,76.28 C87.1466588,75.9333316 85.8533384,75.5466688 84.84,75.12 L86.92,65.6 C88.1466728,66.0266688 89.2399952,66.3199992 90.2,66.48 C91.1600048,66.6400008 92.173328,66.72 93.24,66.72 C95.373344,66.72 97.0133276,66.1466724 98.16,65 C99.3066724,63.8533276 100.279996,62.2666768 101.08,60.24 C98.3599864,54.90664 95.6400136,48.9200332 92.92,42.28 C90.1999864,35.6399668 87.640012,28.186708 85.24,19.92 L97.88,19.92 C98.413336,22.0000104 99.0399964,24.2533212 99.76,26.68 C100.480004,29.1066788 101.239996,31.5599876 102.04,34.04 C102.840004,36.5200124 103.653329,38.9333216 104.48,41.28 C105.306671,43.6266784 106.09333,45.7599904 106.84,47.68 C107.533337,45.7599904 108.25333,43.6266784 109,41.28 C109.74667,38.9333216 110.479996,36.5200124 111.2,34.04 C111.920004,31.5599876 112.61333,29.1066788 113.28,26.68 C113.94667,24.2533212 114.546664,22.0000104 115.08,19.92 L127.4,19.92 Z" id="city" fill="#4AA564" sketch:type="MSShapeGroup"></path>
        <path d="M126.6,40.96 C126.6,37.9199848 127.093328,35.0533468 128.08,32.36 C129.066672,29.6666532 130.493324,27.32001 132.36,25.32 C134.226676,23.31999 136.49332,21.7333392 139.16,20.56 C141.82668,19.3866608 144.86665,18.8 148.28,18.8 C150.520011,18.8 152.573324,18.999998 154.44,19.4 C156.306676,19.800002 158.119991,20.3733296 159.88,21.12 L157.4,30.64 C156.279994,30.2133312 155.05334,29.8400016 153.72,29.52 C152.38666,29.1999984 150.893342,29.04 149.24,29.04 C145.719982,29.04 143.093342,30.1333224 141.36,32.32 C139.626658,34.5066776 138.76,37.3866488 138.76,40.96 C138.76,44.7466856 139.573325,47.6799896 141.2,49.76 C142.826675,51.8400104 145.666646,52.88 149.72,52.88 C151.160007,52.88 152.706658,52.746668 154.36,52.48 C156.013342,52.213332 157.533326,51.7866696 158.92,51.2 L160.6,60.96 C159.213326,61.5466696 157.48001,62.0533312 155.4,62.48 C153.31999,62.9066688 151.026679,63.12 148.52,63.12 C144.679981,63.12 141.373347,62.5466724 138.6,61.4 C135.826653,60.2533276 133.546676,58.6933432 131.76,56.72 C129.973324,54.7466568 128.666671,52.4133468 127.84,49.72 C127.013329,47.0266532 126.6,44.1066824 126.6,40.96 Z M177.72,18.8 C181.240018,18.8 184.173322,19.199996 186.52,20 C188.866678,20.800004 190.74666,21.9466592 192.16,23.44 C193.57334,24.9333408 194.57333,26.746656 195.16,28.88 C195.74667,31.013344 196.04,33.3866536 196.04,36 L196.04,60.8 C194.333325,61.1733352 191.960015,61.6133308 188.92,62.12 C185.879985,62.6266692 182.200022,62.88 177.88,62.88 C175.159986,62.88 172.693344,62.6400024 170.48,62.16 C168.266656,61.6799976 166.360008,60.8933388 164.76,59.8 C163.159992,58.7066612 161.933338,57.2800088 161.08,55.52 C160.226662,53.7599912 159.8,51.6000128 159.8,49.04 C159.8,46.5866544 160.293328,44.5066752 161.28,42.8 C162.266672,41.0933248 163.586658,39.7333384 165.24,38.72 C166.893342,37.7066616 168.786656,36.9733356 170.92,36.52 C173.053344,36.0666644 175.266655,35.84 177.56,35.84 C179.106674,35.84 180.479994,35.906666 181.68,36.04 C182.880006,36.173334 183.85333,36.3466656 184.6,36.56 L184.6,35.44 C184.6,33.4133232 183.986673,31.7866728 182.76,30.56 C181.533327,29.3333272 179.400015,28.72 176.36,28.72 C174.333323,28.72 172.333343,28.8666652 170.36,29.16 C168.386657,29.4533348 166.680007,29.866664 165.24,30.4 L163.72,20.8 C164.413337,20.5866656 165.279995,20.3600012 166.32,20.12 C167.360005,19.8799988 168.493327,19.6666676 169.72,19.48 C170.946673,19.2933324 172.239993,19.133334 173.6,19 C174.960007,18.866666 176.333326,18.8 177.72,18.8 Z M178.68,53.68 C179.853339,53.68 180.973328,53.6533336 182.04,53.6 C183.106672,53.5466664 183.959997,53.4666672 184.6,53.36 L184.6,44.32 C184.119998,44.2133328 183.400005,44.1066672 182.44,44 C181.479995,43.8933328 180.600004,43.84 179.8,43.84 C178.679994,43.84 177.626672,43.906666 176.64,44.04 C175.653328,44.173334 174.78667,44.4266648 174.04,44.8 C173.29333,45.1733352 172.706669,45.6799968 172.28,46.32 C171.853331,46.9600032 171.64,47.7599952 171.64,48.72 C171.64,50.586676 172.26666,51.8799964 173.52,52.6 C174.77334,53.3200036 176.493322,53.68 178.68,53.68 Z M225.96,39.68 C225.96,35.8399808 225.466672,33.120008 224.48,31.52 C223.493328,29.919992 221.800012,29.12 219.4,29.12 C218.65333,29.12 217.880004,29.1599996 217.08,29.24 C216.279996,29.3200004 215.50667,29.4133328 214.76,29.52 L214.76,62 L202.84,62 L202.84,21.36 C203.853338,21.093332 205.039993,20.8133348 206.4,20.52 C207.760007,20.2266652 209.199992,19.9600012 210.72,19.72 C212.240008,19.4799988 213.799992,19.293334 215.4,19.16 C217.000008,19.026666 218.573326,18.96 220.12,18.96 C223.160015,18.96 225.626657,19.3466628 227.52,20.12 C229.413343,20.8933372 230.973327,21.813328 232.2,22.88 C233.906675,21.6533272 235.866656,20.6933368 238.08,20 C240.293344,19.3066632 242.333324,18.96 244.2,18.96 C247.560017,18.96 250.319989,19.426662 252.48,20.36 C254.640011,21.293338 256.359994,22.6133248 257.64,24.32 C258.920006,26.0266752 259.799998,28.0533216 260.28,30.4 C260.760002,32.7466784 261,35.3599856 261,38.24 L261,62 L249.08,62 L249.08,39.68 C249.08,35.8399808 248.586672,33.120008 247.6,31.52 C246.613328,29.919992 244.920012,29.12 242.52,29.12 C241.879997,29.12 240.986672,29.2799984 239.84,29.6 C238.693328,29.9200016 237.74667,30.3199976 237,30.8 C237.373335,32.0266728 237.613333,33.3199932 237.72,34.68 C237.826667,36.0400068 237.88,37.4933256 237.88,39.04 L237.88,62 L225.96,62 L225.96,39.68 Z M306.92,40.96 C306.92,44.2133496 306.520004,47.17332 305.72,49.84 C304.919996,52.50668 303.746674,54.7999904 302.2,56.72 C300.653326,58.6400096 298.733345,60.133328 296.44,61.2 C294.146655,62.266672 291.506682,62.8 288.52,62.8 C286.866658,62.8 285.320007,62.6400016 283.88,62.32 C282.439993,61.9999984 281.05334,61.5466696 279.72,60.96 L279.72,76.8 L267.8,76.8 L267.8,21.36 C268.866672,21.0399984 270.093326,20.7333348 271.48,20.44 C272.866674,20.1466652 274.319992,19.8933344 275.84,19.68 C277.360008,19.4666656 278.906659,19.293334 280.48,19.16 C282.053341,19.026666 283.559993,18.96 285,18.96 C288.466684,18.96 291.559986,19.4799948 294.28,20.52 C297.000014,21.5600052 299.293324,23.0266572 301.16,24.92 C303.026676,26.8133428 304.453328,29.1199864 305.44,31.84 C306.426672,34.5600136 306.92,37.5999832 306.92,40.96 Z M294.76,41.28 C294.76,37.5999816 293.933342,34.6533444 292.28,32.44 C290.626658,30.2266556 288.17335,29.12 284.92,29.12 C283.853328,29.12 282.866671,29.1599996 281.96,29.24 C281.053329,29.3200004 280.30667,29.4133328 279.72,29.52 L279.72,51.04 C280.46667,51.5200024 281.439994,51.9199984 282.64,52.24 C283.840006,52.5600016 285.053327,52.72 286.28,52.72 C291.933362,52.72 294.76,48.9067048 294.76,41.28 Z" id="Text" fill="#212121" sketch:type="MSShapeGroup"></path>
    </g>
</svg>